<?xml version="1.0" standalone="no"?>
<!DOCTYPE svg PUBLIC "-//W3C//DTD SVG 1.1//EN" "http://www.w3.org/Graphics/SVG/1.1/DTD/svg11.dtd" >
<svg>
<metadata>
Created by FontForge 20120731 at Sat Dec 15 06:40:26 2018
 By www-data
========================================
 Copyright (c) Boutros International, 2005. All rights reserved.
      Convert And Modified By Mojtaba Kia  (c) 2007 - 2008
========================================
</metadata>
<defs>
<font id="Mj_DinarOneMedium" horiz-adv-x="796" >
  <font-face 
    font-family="Mj_Dinar One Medium"
    font-weight="400"
    font-stretch="normal"
    units-per-em="2048"
    panose-1="2 0 6 4 2 0 0 2 0 4"
    ascent="1638"
    descent="-410"
    bbox="-221 -906 2666 2306"
    underline-thickness="100"
    underline-position="-670"
    unicode-range="U+0020-FEFC"
  />
<missing-glyph horiz-adv-x="1298" 
d="M100 -4v1661h998v-1661h-998zM266 163h666v1328h-666v-1328z" />
    <glyph glyph-name=".notdef" unicode="&#x652;&#x64b;" horiz-adv-x="1298" 
d="M100 -4v1661h998v-1661h-998zM266 163h666v1328h-666v-1328z" />
    <glyph glyph-name="uniFC60" unicode="&#x651;&#x64e;" horiz-adv-x="763" arabic-form="isolated" 
d="M662 1616l-32 -41l-34 -44h-150l-49 69l-53 -126h-236v204l55 116l78 -40l-33 -83v-76h103l18 63l10 36l-1 79l29 15l68 36v-173h122l-3 53l-2 30l-15 24l-7 12l-21 32l78 57l31 -41l24 -64l20 -54v-84zM616 2005l-485 -121l-28 100l488 124z" />
    <glyph glyph-name="uniFC61" unicode="&#x651;&#x64f;" horiz-adv-x="769" arabic-form="isolated" 
d="M498 2113h-108l-23 -18l-26 -19v-57l51 -39l29 2l77 5v126zM612 1639l-32 -41l-35 -44h-152l-51 71l-54 -129h-241v208l56 118l79 -39l-33 -86v-78h106l19 66l9 34l-1 81l29 17l70 36v-176h125l-3 53l-2 33l-45 68l80 59l34 -45l23 -63l19 -53v-90zM271 1957l-28 45v119
l61 51l54 45h123l56 -44l59 -46v-211l-172 -40l-352 -81l-25 95l86 24z" />
    <glyph glyph-name="uniE818" unicode="&#x651;&#x64b;" horiz-adv-x="769" 
d="M640 1631l-33 -41l-34 -44h-153l-50 71l-54 -129h-241v208l56 118l78 -40l-32 -85v-78h104l20 65l10 37l-3 79l31 17l70 36v-176h123l-3 53l-1 29l-44 71l79 59l33 -43l24 -64l20 -55v-88zM616 1999l-495 -122l-27 101l497 127zM611 2186l-496 -123l-28 102l498 126z" />
    <glyph glyph-name="uniFC5E" unicode="&#x651;&#x64c;" horiz-adv-x="785" arabic-form="isolated" 
d="M575 2165h-105l-46 -35v-55l46 -42l30 1l75 6v125zM655 1602l-32 -40l-33 -44h-151l-48 70l-54 -127h-235v204l54 116l78 -40l-33 -83v-76h103l19 63l10 36l-2 79l29 16l68 35v-172h123l-4 52l-1 29l-16 24l-7 13l-21 31l78 58l32 -41l24 -64l19 -54v-85zM671 1972
l-168 -40l-355 -84l-33 90l33 16l53 25v78h-40l-32 -23l-39 58l47 65l56 -2l91 -2v-140l-29 -42l97 36l-27 45v123l60 49l54 43h119l54 -44l59 -47v-204z" />
    <glyph glyph-name="uniFC62" unicode="&#x651;&#x650;" horiz-adv-x="769" arabic-form="isolated" 
d="M642 1746l-495 -123l-27 102l498 126zM661 1979l-33 -41l-34 -44h-153l-50 71l-54 -129h-241v208l56 118l79 -40l-33 -86v-77h106l18 64l10 35l-1 81l29 18l70 35v-176h125l-3 54l-2 32l-45 68l79 60l77 -103v-148z" />
    <glyph glyph-name="uniFC5F" unicode="&#x651;&#x64d;" horiz-adv-x="769" arabic-form="isolated" 
d="M600 1822l-495 -123l-27 102l498 126zM618 1619l-495 -123l-27 102l497 125zM619 2055l-33 -41l-34 -44h-153l-50 71l-54 -129h-241v208l56 118l79 -40l-33 -86v-77h106l18 65l10 34l-1 82l29 17l70 35v-175h125l-3 53l-2 32l-45 68l79 60l77 -103v-148z" />
    <glyph glyph-name="uniFEF5" unicode="&#xfedf;&#xfe82;" horiz-adv-x="1140" arabic-form="isolated" 
d="M100 0l90 172h207v1008l195 57v-1065h77q203 0 203 205v901l193 57v-973q0 -159 -105 -260q-106 -102 -278 -102h-582zM147 1430q115 86 197 86q61 0 129 -33q71 -31 104 -31q47 0 107 53l90 -65q-115 -84 -197 -84q-55 0 -123 30q-65 33 -96 33q-63 0 -121 -53z" />
    <glyph glyph-name="uniFEF6" unicode="&#xfee0;&#xfe82;" horiz-adv-x="1368" arabic-form="final" 
d="M100 0l90 172h207v1008l195 57v-1065h77q203 0 203 205v901q23 4 72 16.5t121 30.5v-954q0 -199 204 -199h140v-172h-152q-182 0 -285 109q-104 -109 -290 -109h-181h-401zM147 1430q115 86 197 86q61 0 129 -33q71 -31 104 -31q47 0 107 53l90 -65q-115 -84 -197 -84
q-55 0 -123 30q-65 33 -96 33q-63 0 -121 -53z" />
    <glyph glyph-name="uniFEF7" unicode="&#xfedf;&#xfe84;" horiz-adv-x="1140" arabic-form="isolated" 
d="M100 0l90 172h207v1008l195 57v-1065h77q203 0 203 205v901l193 57v-973q0 -159 -105 -260q-106 -102 -278 -102h-582zM280 1360l43 70h58v40q0 142 131 142q51 0 94 -43l-45 -58q-21 31 -55 31q-50 0 -50 -72v-40h162v-70h-338z" />
    <glyph glyph-name="uniFEF8" unicode="&#xfee0;&#xfe84;" horiz-adv-x="1368" arabic-form="final" 
d="M100 0l90 172h207v1008l195 57v-1065h77q203 0 203 205v901q23 4 72 16.5t121 30.5v-954q0 -199 204 -199h140v-172h-152q-182 0 -285 109q-104 -109 -290 -109h-181h-401zM280 1360l43 70h58v40q0 142 131 142q51 0 94 -43l-45 -58q-21 31 -55 31q-50 0 -50 -72v-40h162
v-70h-338z" />
    <glyph glyph-name="uniFEF9" unicode="&#xfedf;&#xfe88;" horiz-adv-x="1140" arabic-form="isolated" 
d="M100 0l90 172h207v1008l195 57v-1065h77q203 0 203 205v901l193 57v-973q0 -159 -105 -260q-106 -102 -278 -102h-582zM256 -399l43 71h59v39q0 142 129 142q51 0 94 -43l-45 -58q-20 31 -55 31q-49 0 -49 -72v-39h162v-71h-338z" />
    <glyph glyph-name="uniFEFA" unicode="&#xfee0;&#xfe88;" horiz-adv-x="1368" arabic-form="final" 
d="M100 0l90 172h207v1008l195 57v-1065h77q203 0 203 205v901q23 4 72 16.5t121 30.5v-954q0 -199 204 -199h140v-172h-152q-182 0 -285 109q-104 -109 -290 -109h-181h-401zM256 -399l43 71h59v39q0 142 129 142q51 0 94 -43l-45 -58q-20 31 -55 31q-49 0 -49 -72v-39h162
v-71h-338z" />
    <glyph glyph-name="uniFEFB" unicode="&#xfedf;&#xfe8e;" horiz-adv-x="1140" arabic-form="isolated" 
d="M100 0l90 172h207v1008l195 57v-1065h77q203 0 203 205v901l193 57v-973q0 -159 -105 -260q-106 -102 -278 -102h-582z" />
    <glyph glyph-name="uniFEFC" unicode="&#xfee0;&#xfe8e;" horiz-adv-x="1368" arabic-form="final" 
d="M100 0l90 172h207v1008l195 57v-1065h77q203 0 203 205v901q23 4 72 16.5t121 30.5v-954q0 -199 204 -199h140v-172h-152q-182 0 -285 109q-104 -109 -290 -109h-181h-401z" />
    <glyph glyph-name="uniFDF2" unicode="&#xfedf;&#xfee0;&#xfeea;" horiz-adv-x="2316" arabic-form="isolated" 
d="M503 766q-120 0 -167 -80q-41 -65 -41 -217q0 -150 41 -219q45 -82 167 -82q123 0 168 82q41 69 41 219v297h-209zM1871 169q201 0 201 209v879l194 57v-955q0 -155 -104 -260q-107 -102 -281 -102h-106q-176 0 -284 111q-101 -111 -289 -108h-106q-240 0 -304 143
q-69 -143 -301 -143q-391 0 -391 469q0 455 391 455h416v-547q0 -203 189 -209h4l90 1q202 0 202 209v879l195 61v-950q0 -199 201 -199h83zM1335 1563q0 -14 3.5 -31t25.5 -28q6 -2 17 -4q28 -6 46 9q34 24 40 54l31 -1q13 -24 19 -28q10 -15 36 -23q20 -10 34 4
q12 16 18.5 27.5t5.5 19.5l42 -2q18 -46 14 -69q-3 -14 -16 -23.5t-34 -14t-49.5 -2.5t-64.5 13l-12 7q-22 -11 -46 -19.5t-59 -8.5q-84 16 -98 47q-14 22 13 71z" />
    <glyph glyph-name="uniFD3F" unicode="&#x652;&#x64e;" horiz-adv-x="1042" 
d="M952 430q0 -33 -94 -79q-21 -141 -46 -141q-128 125 -185 125q0 -74 115 -189q-2 -44 -176 -44q-67 -179 -174 -322q-177 -233 -290 -233q-18 5 -18 10q0 18 16 31q240 207 297 522q-92 21 -92 38q128 134 128 192q-98 -12 -190 -117q-48 2 -48 133q-85 51 -85 82
q0 46 92 87q0 138 49 138l82 -82q54 -43 102 -43q-7 87 -123 189q0 28 87 36q-25 171 -105 315q-105 153 -184 251q0 20 18 20q28 0 105 -59q220 -174 338 -514q184 -5 184 -52q-41 -43 -82 -84q-43 -54 -46 -108q49 6 105 44q31 23 90 79q38 0 38 -133q92 -43 92 -92z
M640 435q0 110 -108 110q-112 0 -112 -110q0 -107 112 -107q41 0 74.5 33t33.5 74z" />
    <glyph glyph-name="afii57410" unicode="&#x622;" horiz-adv-x="370" arabic-form="isolated" 
d="M101 0v1260l195 61v-1321h-195zM-81 1479q115 86 197 86q61 0 129 -33q71 -31 104 -31q47 0 107 53l90 -65q-115 -84 -197 -84q-55 0 -123 31q-65 32 -96 32q-64 0 -121 -53z" />
    <glyph glyph-name="uniFE82" unicode="&#x622;" horiz-adv-x="561" arabic-form="final" 
d="M372 0q-131 0 -201 72.5t-70 191.5v996l195 61v-1051q0 -98 100 -98h193v-172h-217zM-81 1479q115 86 197 86q61 0 129 -33q71 -31 104 -31q47 0 107 53l90 -65q-115 -84 -197 -84q-55 0 -123 31q-65 32 -96 32q-64 0 -121 -53z" />
    <glyph glyph-name="afii57411" unicode="&#x623;" horiz-adv-x="370" arabic-form="isolated" 
d="M100 0v1260l194 61v-1321h-194zM22 1399l43 69h57v41q0 142 131 142q52 0 95 -43l-45 -58q-21 31 -56 31q-49 0 -49 -72v-41h162v-69h-338z" />
    <glyph glyph-name="uniFE84" unicode="&#x623;" horiz-adv-x="561" arabic-form="final" 
d="M370 0q-131 0 -200.5 72.5t-69.5 191.5v996l194 61v-1051q0 -98 101 -98h192v-172h-217zM22 1399l43 69h57v41q0 142 131 142q52 0 95 -43l-45 -58q-21 31 -56 31q-49 0 -49 -72v-41h162v-69h-338z" />
    <glyph glyph-name="afii57412" unicode="&#x624;" horiz-adv-x="972" arabic-form="isolated" 
d="M123 -152q172 -81 325 -71q221 12 246 243q-88 -49 -195 -49q-213 0 -315 148q-84 121 -84 311q0 193 84 313q102 146 315 146q236 0 330 -168q68 -127 68 -363v-66t-2 -83q-7 -98 -7 -129q-4 -213 -108 -334q-115 -139 -332 -139q-151 0 -239 53zM499 141q205 0 205 289
q0 291 -205 291q-206 0 -206 -291q0 -289 206 -289zM157 1008l86 106h93v35q0 104 59 174t170 70q84 0 160 -76l-80 -80q-41 53 -94 53q-105 0 -105 -125v-51h297v-106h-586z" />
    <glyph glyph-name="uniFE86" unicode="&#x624;" horiz-adv-x="1093" arabic-form="final" 
d="M120 -152q175 -77 322 -71q98 2 162.5 66.5t77.5 156.5h-160q-207 4 -318 123q-104 110 -104 295q0 200 90 327q109 152 318 152q391 0 391 -479q0 -47 -1 -109.5t-3 -140.5h223v-168h-242q-26 -170 -133 -274q-117 -119 -297 -119q-156 0 -240 53zM702 168l2 250
q0 145 -26 207q-43 102 -170 102q-213 0 -213 -309q0 -250 227 -250h180zM157 1008l86 106h93v35q0 104 59 174t170 70q84 0 160 -76l-80 -80q-41 53 -94 53q-105 0 -105 -125v-51h297v-106h-586z" />
    <glyph glyph-name="afii57413" unicode="&#x625;" horiz-adv-x="370" arabic-form="isolated" 
d="M100 0v1260l195 61v-1321h-195zM2 -399l43 71h59v39q0 142 129 142q52 0 95 -43l-45 -58q-21 31 -56 31q-49 0 -49 -72v-39h162v-71h-338z" />
    <glyph glyph-name="uniFE88" unicode="&#x625;" horiz-adv-x="561" arabic-form="final" 
d="M370 0q-131 0 -200.5 72.5t-69.5 191.5v996l194 61v-1051q0 -98 101 -98h192v-172h-217zM22 -399l43 71h59v39q0 142 129 142q52 0 95 -43l-45 -58q-21 31 -56 31q-49 0 -49 -72v-39h162v-71h-338z" />
    <glyph glyph-name="afii57414" unicode="&#x626;" horiz-adv-x="1323" arabic-form="isolated" 
d="M297 297q0 -285 92 -397q92 -115 305 -115q146 0 236 53q115 66 115 197v241h-508v285q0 166 104.5 264.5t282.5 98.5q190 0 323 -146l-63 -188q-107 166 -250 166q-203 0 -203 -209v-101h506v-411q0 -225 -172 -338q-143 -90 -371 -90q-317 0 -452 176
q-113 137 -141 455zM-221 393l94 119h103v39q0 117 66.5 195.5t189.5 78.5q98 0 182 -84l-88 -88q-45 58 -107 58q-118 0 -118 -140v-59h335v-119h-657z" />
    <glyph glyph-name="uniFE8A" unicode="&#x626;" horiz-adv-x="1136" arabic-form="final" 
d="M-106 727l98 117h103v41q0 119 66.5 197.5t189.5 78.5q100 0 182 -86l-92 -90q-43 57 -105 57q-118 0 -118 -135v-63h338v-117h-662zM406 635q-121 -270 -121 -479q0 -179 88 -277t260 -96q150 0 211 27q123 45 135 190q-190 16 -251 156l90 184q18 -49 39.5 -82
t48 -52.5t62.5 -28.5t85 -9h84v-168q12 -195 -139 -299q-133 -94 -365 -94q-270 0 -409 151q-123 131 -123 361q0 186 82 381z" />
    <glyph glyph-name="uniFE8B" unicode="&#x626;" horiz-adv-x="495" arabic-form="initial" 
d="M-83 1063l98 119h62v41q0 57 17.5 107t50 87t79.5 58.5t109 21.5q100 0 182 -86l-90 -90q-43 57 -107 57q-116 0 -116 -137v-59h295v-119h-580zM-22 0v168h48q202 0 202 209v489l193 58v-562q0 -159 -105 -260q-106 -102 -278 -102h-60z" />
    <glyph glyph-name="uniFE8C" unicode="&#x626;" arabic-form="medial" 
d="M-12 1063l99 119h69v41q0 57 17.5 107t51.5 87t81 58.5t108 21.5q99 0 180 -86l-90 -90q-43 57 -106 57q-115 0 -115 -137v-59h305v-119h-600zM-24 0v168h135q205 0 205 209v489l192 58v-553q0 -203 203 -203h111v-168h-123q-180 0 -285 109q-104 -109 -291 -109h-147z
" />
    <glyph glyph-name="afii57415" unicode="&#x627;" horiz-adv-x="370" arabic-form="isolated" 
d="M100 0v1260l195 61v-1321h-195z" />
    <glyph glyph-name="uniFE8E" unicode="&#x627;" horiz-adv-x="561" arabic-form="final" 
d="M370 0q-131 0 -200.5 72.5t-69.5 191.5v996l195 61v-1051q0 -98 100 -98h192v-172h-217z" />
    <glyph glyph-name="afii57416" unicode="&#x628;" horiz-adv-x="1656" arabic-form="isolated" 
d="M469 0q-82 0 -150.5 25.5t-117 71.5t-75 110.5t-26.5 144.5v207l193 197v-383q0 -201 202 -201h690q205 0 205 201v499l191 52v-572q0 -162 -102.5 -257t-282.5 -95h-727zM868 -395q-43 0 -73.5 31.5t-30.5 74.5q0 41 30.5 73t73.5 32t74.5 -32t31.5 -73
q0 -43 -31.5 -74.5t-74.5 -31.5z" />
    <glyph glyph-name="uniFE90" unicode="&#x628;" horiz-adv-x="1892" arabic-form="final" 
d="M469 0q-82 0 -150.5 25.5t-117 71.5t-75 110.5t-26.5 144.5v207l193 197v-383q0 -201 202 -201h690q205 0 205 201v499l191 52v-488q0 -264 252 -264h84v-172h-97q-207 0 -297 152q-102 -152 -327 -152h-727zM868 -395q-43 0 -73.5 31.5t-30.5 74.5q0 41 30.5 73t73.5 32
t74.5 -32t31.5 -73q0 -43 -31.5 -74.5t-74.5 -31.5z" />
    <glyph glyph-name="uniFE91" unicode="&#x628;" horiz-adv-x="593" arabic-form="initial" 
d="M-24 0v168h147q203 0 203 209v489l193 58v-562q0 -159 -105 -260q-106 -102 -280 -102h-158zM289 -393q-41 0 -72.5 31.5t-31.5 74.5t31.5 74t72.5 31q43 0 75 -31t32 -74t-32 -74.5t-75 -31.5z" />
    <glyph glyph-name="uniFE92" unicode="&#x628;" arabic-form="medial" 
d="M-24 0v168h135q205 0 205 209v489l192 58v-553q0 -203 203 -203h111v-168h-123q-180 0 -285 109q-104 -109 -291 -109h-147zM425 -395q-43 0 -75 31.5t-32 74.5q0 41 32 73t75 32t73.5 -32t30.5 -73q0 -43 -30.5 -74.5t-73.5 -31.5z" />
    <glyph glyph-name="afii57506" unicode="&#x67e;" horiz-adv-x="1656" arabic-form="isolated" 
d="M469 0q-82 0 -150.5 25.5t-117 71.5t-75 110.5t-26.5 144.5v207l193 197v-383q0 -201 202 -201h690q205 0 205 201v499l191 52v-572q0 -162 -102.5 -257t-282.5 -95h-727zM979 -393q-41 0 -73 31.5t-32 74.5t32 74t73 31q43 0 74.5 -31t31.5 -74t-31.5 -74.5t-74.5 -31.5
zM704 -393q-43 0 -73.5 31.5t-30.5 74.5t30.5 74t73.5 31t75 -31t32 -74t-32 -74.5t-75 -31.5zM843 -633q-43 0 -74.5 32t-31.5 75t31.5 74.5t74.5 31.5t75 -31.5t32 -74.5t-32 -75t-75 -32z" />
    <glyph glyph-name="uniFB57" unicode="&#x67e;" horiz-adv-x="1892" arabic-form="final" 
d="M469 0q-82 0 -150.5 25.5t-117 71.5t-75 110.5t-26.5 144.5v207l193 197v-383q0 -201 202 -201h690q205 0 205 201v499l191 52v-488q0 -264 252 -264h84v-172h-97q-207 0 -297 152q-102 -152 -327 -152h-727zM979 -393q-41 0 -73 31.5t-32 74.5t32 74t73 31
q43 0 74.5 -31t31.5 -74t-31.5 -74.5t-74.5 -31.5zM704 -393q-43 0 -73.5 31.5t-30.5 74.5t30.5 74t73.5 31t75 -31t32 -74t-32 -74.5t-75 -31.5zM843 -633q-43 0 -74.5 32t-31.5 75t31.5 74.5t74.5 31.5t75 -31.5t32 -74.5t-32 -75t-75 -32z" />
    <glyph glyph-name="uniFB58" unicode="&#x67e;" horiz-adv-x="593" arabic-form="initial" 
d="M-24 0v168h147q203 0 203 209v489l193 58v-562q0 -159 -105 -260q-106 -102 -280 -102h-158zM408 -393q-43 0 -73.5 31.5t-30.5 74.5t30.5 74t73.5 31t75 -31t32 -74t-32 -74.5t-75 -31.5zM134 -393q-45 0 -75 31.5t-30 74.5t30 74t75 31q43 0 74.5 -31t31.5 -74
t-31.5 -74.5t-74.5 -31.5zM273 -633q-43 0 -75 32t-32 75q0 45 32 75.5t75 30.5t73.5 -30.5t30.5 -75.5q0 -43 -30.5 -75t-73.5 -32z" />
    <glyph glyph-name="uniFB59" unicode="&#x67e;" arabic-form="medial" 
d="M-24 0v168h135q205 0 205 209v489l192 58v-553q0 -203 203 -203h111v-168h-123q-180 0 -285 109q-104 -109 -291 -109h-147zM441 -287q0 43 31.5 74t76.5 31q43 0 75 -31t32 -74t-32 -74.5t-75 -31.5q-45 0 -76.5 31.5t-31.5 74.5zM273 -393q-43 0 -75 31.5t-32 74.5
t32 74t75 31t73.5 -31t30.5 -74t-30.5 -74.5t-73.5 -31.5zM410 -633q-41 0 -72.5 32t-31.5 75t31.5 74.5t72.5 31.5q43 0 75 -31.5t32 -74.5t-32 -75t-75 -32z" />
    <glyph glyph-name="afii57418" unicode="&#x62a;" horiz-adv-x="1656" arabic-form="isolated" 
d="M979 793q-41 0 -73 30.5t-32 75.5q0 43 32 75t73 32q43 0 74.5 -32t31.5 -75q0 -45 -31.5 -75.5t-74.5 -30.5zM704 793q-43 0 -73.5 30.5t-30.5 75.5q0 43 30.5 75t73.5 32t75 -32t32 -75q0 -45 -32 -75.5t-75 -30.5zM469 0q-82 0 -150.5 25.5t-117 71.5t-75 110.5
t-26.5 144.5v207l193 197v-383q0 -201 202 -201h690q205 0 205 201v499l191 52v-572q0 -162 -102.5 -257t-282.5 -95h-727z" />
    <glyph glyph-name="uniFE96" unicode="&#x62a;" horiz-adv-x="1892" arabic-form="final" 
d="M979 793q-41 0 -73 30.5t-32 75.5q0 43 32 75t73 32q43 0 74.5 -32t31.5 -75q0 -45 -31.5 -75.5t-74.5 -30.5zM704 793q-43 0 -73.5 30.5t-30.5 75.5q0 43 30.5 75t73.5 32t75 -32t32 -75q0 -45 -32 -75.5t-75 -30.5zM469 0q-82 0 -150.5 25.5t-117 71.5t-75 110.5
t-26.5 144.5v207l193 197v-383q0 -201 202 -201h690q205 0 205 201v499l191 52v-488q0 -264 252 -264h84v-172h-97q-207 0 -297 152q-102 -152 -327 -152h-727z" />
    <glyph glyph-name="uniFE97" unicode="&#x62a;" horiz-adv-x="593" arabic-form="initial" 
d="M427 1106q-43 0 -75 31.5t-32 74.5t32 74t75 31q45 0 75.5 -31t30.5 -74t-30.5 -74.5t-75.5 -31.5zM152 1106q-43 0 -74.5 31.5t-31.5 74.5t31.5 74t74.5 31t74 -31t31 -74t-31 -74.5t-74 -31.5zM-24 0v168h147q203 0 203 209v489l193 58v-562q0 -159 -105 -260
q-106 -102 -280 -102h-158z" />
    <glyph glyph-name="uniFE98" unicode="&#x62a;" arabic-form="medial" 
d="M541 1106q-41 0 -72.5 31.5t-31.5 74.5t31.5 74t72.5 31q43 0 75 -31t32 -74t-32 -74.5t-75 -31.5zM267 1106q-45 0 -75 31.5t-30 74.5t30 74t75 31q43 0 74.5 -31t31.5 -74t-31.5 -74.5t-74.5 -31.5zM-24 0v168h135q205 0 205 209v489l192 58v-553q0 -203 203 -203h111
v-168h-123q-180 0 -285 109q-104 -109 -291 -109h-147z" />
    <glyph glyph-name="afii57419" unicode="&#x62b;" horiz-adv-x="1656" arabic-form="isolated" 
d="M843 1030q-43 0 -74.5 32t-31.5 75t31.5 73.5t74.5 30.5t75 -30.5t32 -73.5t-32 -75t-75 -32zM979 793q-41 0 -73 30.5t-32 75.5q0 43 32 75t73 32q43 0 74.5 -32t31.5 -75q0 -45 -31.5 -75.5t-74.5 -30.5zM704 793q-43 0 -73.5 30.5t-30.5 75.5q0 43 30.5 75t73.5 32
t75 -32t32 -75q0 -45 -32 -75.5t-75 -30.5zM469 0q-82 0 -150.5 25.5t-117 71.5t-75 110.5t-26.5 144.5v207l193 197v-383q0 -201 202 -201h690q205 0 205 201v499l191 52v-572q0 -162 -102.5 -257t-282.5 -95h-727z" />
    <glyph glyph-name="uniFE9A" unicode="&#x62b;" horiz-adv-x="1892" arabic-form="final" 
d="M843 1030q-43 0 -74.5 32t-31.5 75t31.5 73.5t74.5 30.5t75 -30.5t32 -73.5t-32 -75t-75 -32zM979 793q-41 0 -73 30.5t-32 75.5q0 43 32 75t73 32q43 0 74.5 -32t31.5 -75q0 -45 -31.5 -75.5t-74.5 -30.5zM704 793q-43 0 -73.5 30.5t-30.5 75.5q0 43 30.5 75t73.5 32
t75 -32t32 -75q0 -45 -32 -75.5t-75 -30.5zM469 0q-82 0 -150.5 25.5t-117 71.5t-75 110.5t-26.5 144.5v207l193 197v-383q0 -201 202 -201h690q205 0 205 201v499l191 52v-488q0 -264 252 -264h84v-172h-97q-207 0 -297 152q-102 -152 -327 -152h-727z" />
    <glyph glyph-name="uniFE9B" unicode="&#x62b;" horiz-adv-x="593" arabic-form="initial" 
d="M209 1450q0 43 32 74.5t75 31.5q45 0 74.5 -31.5t29.5 -74.5q0 -45 -29.5 -74.5t-74.5 -29.5q-43 0 -75 29.5t-32 74.5zM453 1106q-45 0 -74.5 31.5t-29.5 74.5t29.5 74t74.5 31q43 0 75 -31t32 -74t-32 -74.5t-75 -31.5zM177 1106q-43 0 -75 31.5t-32 74.5t32 74t75 31
t74.5 -31t31.5 -74t-31.5 -74.5t-74.5 -31.5zM-24 0v168h147q203 0 203 209v489l193 58v-562q0 -159 -105 -260q-106 -102 -280 -102h-158z" />
    <glyph glyph-name="uniFE9C" unicode="&#x62b;" arabic-form="medial" 
d="M410 1346q-41 0 -72.5 29.5t-31.5 74.5q0 43 31.5 74.5t72.5 31.5q43 0 75 -31.5t32 -74.5q0 -45 -32 -74.5t-75 -29.5zM547 1106q-43 0 -74.5 31.5t-31.5 74.5t31.5 74t74.5 31t75 -31t32 -74t-32 -74.5t-75 -31.5zM273 1106q-45 0 -76 31.5t-31 74.5t31 74t76 31
q43 0 73.5 -31t30.5 -74t-30.5 -74.5t-73.5 -31.5zM-24 0v168h135q205 0 205 209v489l192 58v-553q0 -203 203 -203h111v-168h-123q-180 0 -285 109q-104 -109 -291 -109h-147z" />
    <glyph glyph-name="afii57420" unicode="&#x62c;" horiz-adv-x="1165" arabic-form="isolated" 
d="M944 -315q-137 -78 -318 -78q-225 0 -376 141q-150 137 -150 350q0 217 145 363q144 143 381 143h226q-41 72 -111 121q-82 53 -160 53q-92 0 -155 -33q-64 -30 -160 -116l-125 129q117 104 209 149q104 47 231 47q215 0 353 -143q129 -139 157 -377h-465
q-153 0 -240 -93t-87 -243q0 -141 90 -231q94 -90 237 -90q99 0 154 16q80 21 164 98v-206zM645 0q-43 0 -75 31.5t-32 77.5q0 43 32 74.5t75 31.5t74.5 -31.5t31.5 -74.5q0 -46 -31.5 -77.5t-74.5 -31.5z" />
    <glyph glyph-name="uniFE9E" unicode="&#x62c;" horiz-adv-x="1468" arabic-form="final" 
d="M944 -315q-137 -78 -318 -78q-221 0 -372 137q-154 137 -154 354q0 228 147 367q152 139 379 139h226q-93 213 -281 213q-154 0 -311 -147l-117 108q217 209 428 205q270 -6 383 -215q39 -98 76 -195.5t76 -195.5q100 -205 331 -205h56v-172h-84q-412 0 -504 434h-279
q-73 0 -133.5 -24.5t-103.5 -68.5t-66.5 -106.5t-23.5 -136.5q0 -71 24.5 -130.5t67.5 -101.5t103.5 -65.5t131.5 -23.5q181 0 318 114v-206zM637 10q-43 0 -74 32t-31 75q0 41 31 72.5t74 31.5t74.5 -31.5t31.5 -72.5q0 -43 -31.5 -75t-74.5 -32z" />
    <glyph glyph-name="uniFE9F" unicode="&#x62c;" horiz-adv-x="1140" arabic-form="initial" 
d="M-24 0v168h891v74q0 233 -43 338q-68 172 -268 172q-168 0 -314 -158l-139 129q207 201 453 201q309 0 430 -226q80 -157 80 -456v-242h-1090zM551 -393q-43 0 -73.5 31.5t-30.5 74.5t30.5 74t73.5 31t75 -31t32 -74t-32 -74.5t-75 -31.5z" />
    <glyph glyph-name="uniFEA0" unicode="&#x62c;" horiz-adv-x="1323" arabic-form="medial" 
d="M-24 0v168h920v74q0 233 -43 338q-68 172 -271 172q-166 0 -311 -158l-139 129q206 201 450 201q309 0 430 -226q82 -155 82 -456v-70h254v-172h-1372zM580 -393q-43 0 -74.5 31.5t-31.5 74.5t31.5 74t74.5 31t75 -31t32 -74t-32 -74.5t-75 -31.5z" />
    <glyph glyph-name="afii57507" unicode="&#x686;" horiz-adv-x="1165" arabic-form="isolated" 
d="M688 190q0 43 31.5 75t76.5 32q43 0 74 -32t31 -75q0 -45 -31 -74.5t-74 -29.5q-45 0 -76.5 29.5t-31.5 74.5zM944 -315q-137 -78 -318 -78q-225 0 -376 141q-150 137 -150 350q0 217 145 363q144 143 381 143h226q-82 144 -271 144q-90 0 -153 -33q-27 -15 -65 -42.5
t-87 -72.5l-135 127q117 104 209 150q104 47 231 47q221 0 354.5 -128t155.5 -362h-465q-153 0 -240 -93t-87 -243q0 -141 90 -231q94 -90 237 -90q99 0 154 16q80 21 164 98v-206zM518 86q-43 0 -74 29.5t-31 74.5q0 43 31 75t74 32t74.5 -32t31.5 -75q0 -45 -31.5 -74.5
t-74.5 -29.5zM657 -154q-43 0 -74.5 32t-31.5 75t31.5 73.5t74.5 30.5t75 -30.5t32 -73.5t-32 -75t-75 -32z" />
    <glyph glyph-name="uniFB7B" unicode="&#x686;" horiz-adv-x="1468" arabic-form="final" 
d="M944 -315q-137 -78 -318 -78q-225 0 -376 141q-150 137 -150 350q0 217 145 363q144 143 381 143h226q-82 144 -271 144q-88 0 -151 -33q-27 -15 -65 -42.5t-85 -72.5l-137 127q119 107 207 150q104 47 231 47q295 0 412 -197l135 -362q88 -193 309 -193h56v-172h-76
q-420 0 -512 434h-279q-153 0 -240 -93t-87 -243q0 -141 90 -231q94 -90 237 -90q179 0 318 114v-206zM688 190q0 43 31.5 75t76.5 32q43 0 74 -32t31 -75q0 -45 -31 -74.5t-74 -29.5q-45 0 -76.5 29.5t-31.5 74.5zM518 86q-43 0 -74 29.5t-31 74.5q0 43 31 75t74 32
t74.5 -32t31.5 -75q0 -45 -31.5 -74.5t-74.5 -29.5zM657 -154q-43 0 -74.5 32t-31.5 75t31.5 73.5t74.5 30.5t75 -30.5t32 -73.5t-32 -75t-75 -32z" />
    <glyph glyph-name="uniFB7C" unicode="&#x686;" horiz-adv-x="1140" arabic-form="initial" 
d="M-24 0v168h891v74q0 233 -43 338q-68 172 -268 172q-168 0 -314 -158l-139 129q207 201 453 201q309 0 430 -226q80 -157 80 -456v-242h-1090zM689 -393q-43 0 -75 31.5t-32 74.5t32 74t75 31t73.5 -31t30.5 -74t-30.5 -74.5t-73.5 -31.5zM414 -393q-43 0 -74.5 31.5
t-31.5 74.5t31.5 74t74.5 31t74 -31t31 -74t-31 -74.5t-74 -31.5zM551 -633q-43 0 -73.5 32t-30.5 75t30.5 74.5t73.5 31.5t75 -31.5t32 -74.5t-32 -75t-75 -32z" />
    <glyph glyph-name="uniFB7D" unicode="&#x686;" horiz-adv-x="1323" arabic-form="medial" 
d="M-24 0v168h920v74q0 233 -43 338q-68 172 -271 172q-166 0 -311 -158l-139 129q206 201 450 201q309 0 430 -226q82 -155 82 -456v-70h254v-172h-1372zM742 -393q-43 0 -75 31.5t-32 74.5t32 74t75 31t73.5 -31t30.5 -74t-30.5 -74.5t-73.5 -31.5zM463 -393
q-43 0 -73.5 31.5t-30.5 74.5t30.5 74t73.5 31q45 0 76 -31t31 -74t-31 -74.5t-76 -31.5zM603 -633q-43 0 -75 32t-32 75t32 74.5t75 31.5q45 0 76.5 -31.5t31.5 -74.5t-31.5 -75t-76.5 -32z" />
    <glyph glyph-name="afii57421" unicode="&#x62d;" horiz-adv-x="1165" arabic-form="isolated" 
d="M944 -315q-137 -78 -318 -78q-225 0 -376 141q-150 137 -150 350q0 217 145 363q144 143 381 143h226q-41 72 -111 121q-82 53 -160 53q-92 0 -155 -33q-64 -30 -160 -116l-125 129q117 104 209 149q104 47 231 47q215 0 353 -143q129 -139 157 -377h-465
q-153 0 -240 -93t-87 -243q0 -141 90 -231q94 -90 237 -90q99 0 154 16q80 21 164 98v-206z" />
    <glyph glyph-name="uniFEA2" unicode="&#x62d;" horiz-adv-x="1468" arabic-form="final" 
d="M944 -315q-137 -78 -318 -78q-221 0 -372 137q-154 137 -154 354q0 228 147 367q152 139 379 139h226q-93 213 -281 213q-154 0 -311 -147l-117 108q217 209 428 205q270 -6 383 -215q39 -98 76 -195.5t76 -195.5q100 -205 331 -205h56v-172h-84q-412 0 -504 434h-279
q-73 0 -133.5 -24.5t-103.5 -68.5t-66.5 -106.5t-23.5 -136.5q0 -71 24.5 -130.5t67.5 -101.5t103.5 -65.5t131.5 -23.5q181 0 318 114v-206z" />
    <glyph glyph-name="uniFEA3" unicode="&#x62d;" horiz-adv-x="1140" arabic-form="initial" 
d="M-24 0v168h891v74q0 233 -43 338q-68 172 -268 172q-168 0 -314 -158l-139 129q207 201 453 201q309 0 430 -226q80 -157 80 -456v-242h-1090z" />
    <glyph glyph-name="uniFEA4" unicode="&#x62d;" horiz-adv-x="1323" arabic-form="medial" 
d="M-24 0v168h920v74q0 233 -43 338q-68 172 -271 172q-166 0 -311 -158l-139 129q206 201 450 201q309 0 430 -226q82 -155 82 -456v-70h254v-172h-1372z" />
    <glyph glyph-name="afii57422" unicode="&#x62e;" horiz-adv-x="1165" arabic-form="isolated" 
d="M475 1212q0 43 31.5 74t76.5 31q43 0 75 -31t32 -74t-32 -74.5t-75 -31.5q-45 0 -76.5 31.5t-31.5 74.5zM944 -315q-137 -78 -318 -78q-225 0 -376 141q-150 137 -150 350q0 217 145 363q144 143 381 143h226q-41 72 -111 121q-82 53 -160 53q-92 0 -155 -33
q-64 -30 -160 -116l-125 129q117 104 209 149q104 47 231 47q215 0 353 -143q129 -139 157 -377h-465q-153 0 -240 -93t-87 -243q0 -141 90 -231q94 -90 237 -90q99 0 154 16q80 21 164 98v-206z" />
    <glyph glyph-name="uniFEA6" unicode="&#x62e;" horiz-adv-x="1468" arabic-form="final" 
d="M475 1272q0 43 31.5 74.5t76.5 31.5q43 0 75 -31.5t32 -74.5t-32 -75t-75 -32q-45 0 -76.5 32t-31.5 75zM944 -315q-137 -78 -318 -78q-221 0 -372 137q-154 137 -154 354q0 228 147 367q152 139 379 139h226q-93 213 -281 213q-154 0 -311 -147l-117 108
q217 209 428 205q270 -6 383 -215q39 -98 76 -195.5t76 -195.5q100 -205 331 -205h56v-172h-84q-412 0 -504 434h-279q-73 0 -133.5 -24.5t-103.5 -68.5t-66.5 -106.5t-23.5 -136.5q0 -71 24.5 -130.5t67.5 -101.5t103.5 -65.5t131.5 -23.5q181 0 318 114v-206z" />
    <glyph glyph-name="uniFEA7" unicode="&#x62e;" horiz-adv-x="1140" arabic-form="initial" 
d="M449 1212q0 43 32 74t77 31q43 0 73.5 -31t30.5 -74t-30.5 -74.5t-73.5 -31.5q-45 0 -77 31.5t-32 74.5zM-24 0v168h891v74q0 233 -43 338q-68 172 -268 172q-168 0 -314 -158l-139 129q207 201 453 201q309 0 430 -226q80 -157 80 -456v-242h-1090z" />
    <glyph glyph-name="uniFEA8" unicode="&#x62e;" horiz-adv-x="1323" arabic-form="medial" 
d="M476 1212q0 43 31.5 74t76.5 31q43 0 75 -31t32 -74t-32 -74.5t-75 -31.5q-45 0 -76.5 31.5t-31.5 74.5zM-24 0v168h920v74q0 233 -43 338q-68 172 -271 172q-166 0 -311 -158l-139 129q206 201 450 201q309 0 430 -226q82 -155 82 -456v-70h254v-172h-1372z" />
    <glyph glyph-name="afii57423" unicode="&#x62f;" horiz-adv-x="989" arabic-form="isolated" 
d="M100 0l117 168h504v389q0 201 -213 201q-175 0 -277 -178v221q139 121 277 121q178 0 292 -97q113 -94 113 -254v-571h-813z" />
    <glyph glyph-name="uniFEAA" unicode="&#x62f;" horiz-adv-x="1165" arabic-form="final" 
d="M100 0l117 168h504v389q0 201 -213 201q-175 0 -277 -178v221q139 121 277 121q178 0 292 -97q113 -94 113 -254v-399h279v-172h-1092z" />
    <glyph glyph-name="afii57424" unicode="&#x630;" horiz-adv-x="989" arabic-form="isolated" 
d="M534 1106q-43 0 -74.5 31.5t-31.5 74.5q0 45 31.5 77t74.5 32t74 -32t31 -77q0 -43 -31 -74.5t-74 -31.5zM100 0l117 168h504v389q0 201 -213 201q-175 0 -277 -178v221q139 121 277 121q178 0 292 -97q113 -94 113 -254v-571h-813z" />
    <glyph glyph-name="uniFEAC" unicode="&#x630;" horiz-adv-x="1165" arabic-form="final" 
d="M534 1106q-43 0 -74.5 31.5t-31.5 74.5q0 45 31.5 77t74.5 32t74 -32t31 -77q0 -43 -31 -74.5t-74 -31.5zM100 0l117 168h504v389q0 201 -213 201q-175 0 -277 -178v221q139 121 277 121q178 0 292 -97q113 -94 113 -254v-399h279v-172h-1092z" />
    <glyph glyph-name="afii57425" unicode="&#x631;" arabic-form="isolated" 
d="M-51 -145q139 -78 311 -78q125 0 196 74.5t71 203.5v811l194 58v-863q0 -204 -125 -329q-123 -125 -336 -125q-129 0 -219 55z" />
    <glyph glyph-name="uniFEAE" unicode="&#x631;" horiz-adv-x="985" arabic-form="final" 
d="M-51 -145q139 -78 311 -78q125 0 196 74.5t71 203.5v811l194 58v-752h289v-172h-291q-20 -178 -140 -285.5t-319 -107.5q-129 0 -219 55z" />
    <glyph glyph-name="afii57426" unicode="&#x632;" arabic-form="isolated" 
d="M611 1106q-44 0 -75.5 31.5t-31.5 74.5q0 45 31.5 77t75.5 32q43 0 73.5 -32t30.5 -77q0 -43 -30.5 -74.5t-73.5 -31.5zM-51 -145q139 -78 311 -78q125 0 196 74.5t71 203.5v811l194 58v-863q0 -204 -125 -329q-123 -125 -336 -125q-129 0 -219 55z" />
    <glyph glyph-name="uniFEB0" unicode="&#x632;" horiz-adv-x="985" arabic-form="final" 
d="M611 1106q-44 0 -75.5 31.5t-31.5 74.5q0 45 31.5 77t75.5 32q43 0 73.5 -32t30.5 -77q0 -43 -30.5 -74.5t-73.5 -31.5zM-51 -145q139 -78 311 -78q125 0 196 74.5t71 203.5v811l194 58v-752h289v-172h-291q-20 -178 -140 -285.5t-319 -107.5q-129 0 -219 55z" />
    <glyph glyph-name="afii57508" unicode="&#x698;" arabic-form="isolated" 
d="M-51 -145q139 -78 311 -78q125 0 196 74.5t71 203.5v811l194 58v-863q0 -204 -125 -329q-123 -125 -336 -125q-129 0 -219 55zM467 1346q-43 0 -73.5 29.5t-30.5 74.5q0 43 30.5 74.5t73.5 31.5t75 -31.5t32 -74.5q0 -45 -32 -74.5t-75 -29.5zM498 1212q0 43 31.5 74
t76.5 31q43 0 75 -31t32 -74t-32 -74.5t-75 -31.5q-45 0 -76.5 31.5t-31.5 74.5zM330 1106q-43 0 -75 31.5t-32 74.5t32 74t75 31t73.5 -31t30.5 -74t-30.5 -74.5t-73.5 -31.5z" />
    <glyph glyph-name="uniFB8B" unicode="&#x698;" horiz-adv-x="985" arabic-form="final" 
d="M-51 -145q139 -78 311 -78q125 0 196 74.5t71 203.5v811l194 58v-752h289v-172h-291q-20 -178 -140 -285.5t-319 -107.5q-129 0 -219 55zM467 1346q-43 0 -73.5 29.5t-30.5 74.5q0 43 30.5 74.5t73.5 31.5t75 -31.5t32 -74.5q0 -45 -32 -74.5t-75 -29.5zM498 1212
q0 43 31.5 74t76.5 31q43 0 75 -31t32 -74t-32 -74.5t-75 -31.5q-45 0 -76.5 31.5t-31.5 74.5zM330 1106q-43 0 -75 31.5t-32 74.5t32 74t75 31t73.5 -31t30.5 -74t-30.5 -74.5t-73.5 -31.5z" />
    <glyph glyph-name="afii57427" unicode="&#x633;" horiz-adv-x="2525" arabic-form="isolated" 
d="M293 227q0 -121 21.5 -204.5t69.5 -137t123.5 -78t182.5 -24.5q352 0 352 278v611l195 59v-563h395v610l195 58v-664h209q200 0 200 201v495l195 60v-576q0 -159 -103.5 -255.5t-281.5 -96.5h-811q-25 -393 -547 -393q-367 0 -500 227q-94 162 -88 514l193 58v-179z" />
    <glyph glyph-name="uniFEB2" unicode="&#x633;" horiz-adv-x="2643" arabic-form="final" 
d="M293 227q0 -121 21.5 -204.5t69.5 -137t123.5 -78t182.5 -24.5q352 0 352 278v611l195 59v-559h409v604l195 58v-662h410v694l194 58v-752h221v-172h-1431q-25 -393 -547 -393q-367 0 -500 227q-94 162 -88 514l193 58v-179z" />
    <glyph glyph-name="uniFEB3" unicode="&#x633;" horiz-adv-x="1697" arabic-form="initial" 
d="M-20 0v172h242v518l194 55v-577h402v610l194 58v-664h209q201 0 201 201v495l194 60v-576q0 -159 -103 -255.5t-282 -96.5h-1251z" />
    <glyph glyph-name="uniFEB4" unicode="&#x633;" horiz-adv-x="1822" arabic-form="medial" 
d="M-20 0v172h242v518l194 55v-573h406v604l194 58v-662h410v694l194 58v-752h222v-172h-1862z" />
    <glyph glyph-name="afii57428" unicode="&#x634;" horiz-adv-x="2525" arabic-form="isolated" 
d="M293 227q0 -121 21.5 -204.5t69.5 -137t123.5 -78t182.5 -24.5q352 0 352 278v611l195 59v-563h395v610l195 58v-664h209q200 0 200 201v495l195 60v-576q0 -159 -103.5 -255.5t-281.5 -96.5h-811q-25 -393 -547 -393q-367 0 -500 227q-94 162 -88 514l193 58v-179z
M1581 1106q-45 0 -75 31.5t-30 74.5q0 45 30 77t75 32q43 0 74.5 -32t31.5 -77q0 -43 -31.5 -74.5t-74.5 -31.5zM1855 1106q-43 0 -73.5 31.5t-30.5 74.5q0 45 30.5 77t73.5 32t75 -32t32 -77q0 -43 -32 -74.5t-75 -31.5zM1614 1450q0 43 31.5 74.5t74.5 31.5t75 -31.5
t32 -74.5q0 -41 -32 -72.5t-75 -31.5t-74.5 31.5t-31.5 72.5z" />
    <glyph glyph-name="uniFEB6" unicode="&#x634;" horiz-adv-x="2643" arabic-form="final" 
d="M293 227q0 -121 21.5 -204.5t69.5 -137t123.5 -78t182.5 -24.5q352 0 352 278v611l195 59v-559h409v604l195 58v-662h410v694l194 58v-752h221v-172h-1431q-25 -393 -547 -393q-367 0 -500 227q-94 162 -88 514l193 58v-179zM1872 1106q-45 0 -76 31.5t-31 74.5
q0 45 31 77t76 32q43 0 74.5 -32t31.5 -77q0 -43 -31.5 -74.5t-74.5 -31.5zM1595 1106q-43 0 -73.5 31.5t-30.5 74.5q0 45 30.5 77t73.5 32t75 -32t32 -77q0 -43 -32 -74.5t-75 -31.5zM1628 1450q0 43 31.5 74.5t74.5 31.5t75 -31.5t32 -74.5q0 -41 -32 -72.5t-75 -31.5
t-74.5 31.5t-31.5 72.5z" />
    <glyph glyph-name="uniFEB7" unicode="&#x634;" horiz-adv-x="1697" arabic-form="initial" 
d="M-20 0v172h242v518l194 55v-577h402v610l194 58v-664h209q201 0 201 201v495l194 60v-576q0 -159 -103 -255.5t-282 -96.5h-1251zM766 1106q-45 0 -74.5 31.5t-29.5 74.5q0 45 29.5 77t74.5 32q43 0 75 -32t32 -77q0 -43 -32 -74.5t-75 -31.5zM1041 1106q-43 0 -74 31.5
t-31 74.5q0 45 31 77t74 32t74.5 -32t31.5 -77q0 -43 -31.5 -74.5t-74.5 -31.5zM799 1450q0 43 32 74.5t75 31.5t74.5 -31.5t31.5 -74.5q0 -41 -31.5 -72.5t-74.5 -31.5t-75 31.5t-32 72.5z" />
    <glyph glyph-name="uniFEB8" unicode="&#x634;" horiz-adv-x="1822" arabic-form="medial" 
d="M-20 0v172h242v518l194 55v-573h406v604l194 58v-662h410v694l194 58v-752h222v-172h-1862zM1047 1106q-45 0 -75.5 31.5t-30.5 74.5q0 45 30.5 77t75.5 32q43 0 75 -32t32 -77q0 -43 -32 -74.5t-75 -31.5zM771 1106q-43 0 -74 31.5t-31 74.5q0 45 31 77t74 32t74.5 -32
t31.5 -77q0 -43 -31.5 -74.5t-74.5 -31.5zM803 1450q0 43 32 74.5t75 31.5t74.5 -31.5t31.5 -74.5q0 -41 -31.5 -72.5t-74.5 -31.5t-75 31.5t-32 72.5z" />
    <glyph glyph-name="afii57429" unicode="&#x635;" horiz-adv-x="2557" arabic-form="isolated" 
d="M293 227q0 -121 21.5 -204.5t69.5 -137t123.5 -78t182.5 -24.5q352 0 352 278v611l195 59v-440q39 170 139 319q193 293 535 303q299 11 450 -235q94 -152 94 -418q0 35 -12 -260h-1208q-25 -393 -547 -393q-367 0 -500 227q-94 162 -88 514l193 58v-179zM2257 172
q6 49 6 100q0 191 -76 316q-94 147 -272 147q-215 0 -398 -209q-161 -180 -174 -354h914z" />
    <glyph glyph-name="uniFEBA" unicode="&#x635;" horiz-adv-x="2609" arabic-form="final" 
d="M293 227q0 -121 21.5 -204.5t69.5 -137t123.5 -78t182.5 -24.5q352 0 352 278v611l195 59v-440q39 170 139 319q193 293 535 303q299 11 450 -235q105 -174 92 -506h174v-172h-1392q-25 -393 -547 -393q-367 0 -500 227q-94 162 -88 514l193 58v-179zM2257 172
q6 49 6 100q0 191 -76 316q-94 147 -272 147q-215 0 -398 -209q-161 -180 -174 -354h914z" />
    <glyph glyph-name="uniFEBB" unicode="&#x635;" horiz-adv-x="1720" arabic-form="initial" 
d="M-20 0v172h242v518l194 55v-438q39 162 135 303q193 293 535 303q299 11 450 -235q95 -152 95 -418q0 35 -13 -260h-1638zM1432 172q6 49 6 100q0 191 -76 316q-94 147 -272 147q-215 0 -397 -209q-162 -180 -174 -354h913z" />
    <glyph glyph-name="uniFEBC" unicode="&#x635;" horiz-adv-x="1779" arabic-form="medial" 
d="M-20 0v172h242v518l194 55v-421q21 77 53.5 149t77.5 137q193 293 535 303q299 11 450 -235q105 -174 93 -506h174v-172h-1819zM1428 172q6 49 6 100q0 191 -76 316q-94 147 -272 147q-215 0 -397 -209q-162 -180 -174 -354h913z" />
    <glyph glyph-name="afii57430" unicode="&#x636;" horiz-adv-x="2557" arabic-form="isolated" 
d="M293 227q0 -121 21.5 -204.5t69.5 -137t123.5 -78t182.5 -24.5q352 0 352 278v611l195 59v-440q39 170 139 319q193 293 535 303q299 11 450 -235q94 -152 94 -418q0 35 -12 -260h-1208q-25 -393 -547 -393q-367 0 -500 227q-94 162 -88 514l193 58v-179zM2257 172
q6 49 6 100q0 191 -76 316q-94 147 -272 147q-215 0 -398 -209q-161 -180 -174 -354h914zM1814 1214q0 43 33 75t80 32q45 0 78 -32t33 -75q0 -45 -33 -75.5t-78 -30.5q-47 0 -80 30.5t-33 75.5z" />
    <glyph glyph-name="uniFEBE" unicode="&#x636;" horiz-adv-x="2609" arabic-form="final" 
d="M293 227q0 -121 21.5 -204.5t69.5 -137t123.5 -78t182.5 -24.5q352 0 352 278v611l195 59v-440q39 170 139 319q193 293 535 303q299 11 450 -235q105 -174 92 -506h174v-172h-1392q-25 -393 -547 -393q-367 0 -500 227q-94 162 -88 514l193 58v-179zM2257 172
q6 49 6 100q0 191 -76 316q-94 147 -272 147q-215 0 -398 -209q-161 -180 -174 -354h914zM1814 1214q0 43 33 75t80 32q45 0 78 -32t33 -75q0 -45 -33 -75.5t-78 -30.5q-47 0 -80 30.5t-33 75.5z" />
    <glyph glyph-name="uniFEBF" unicode="&#x636;" horiz-adv-x="1720" arabic-form="initial" 
d="M-20 0v172h242v518l194 55v-438q39 162 135 303q193 293 535 303q299 11 450 -235q95 -152 95 -418q0 35 -13 -260h-1638zM1432 172q6 49 6 100q0 191 -76 316q-94 147 -272 147q-215 0 -397 -209q-162 -180 -174 -354h913zM990 1214q0 43 32.5 75t79.5 32q45 0 78 -32
t33 -75q0 -45 -33 -75.5t-78 -30.5q-47 0 -79.5 30.5t-32.5 75.5z" />
    <glyph glyph-name="uniFEC0" unicode="&#x636;" horiz-adv-x="1779" arabic-form="medial" 
d="M-20 0v172h242v518l194 55v-421q21 77 53.5 149t77.5 137q193 293 535 303q299 11 450 -235q105 -174 93 -506h174v-172h-1819zM1428 172q6 49 6 100q0 191 -76 316q-94 147 -272 147q-215 0 -397 -209q-162 -180 -174 -354h913zM986 1214q0 43 32.5 75t79.5 32
q45 0 78 -32t33 -75q0 -45 -33 -75.5t-78 -30.5q-47 0 -79.5 30.5t-32.5 75.5z" />
    <glyph glyph-name="afii57431" unicode="&#x637;" horiz-adv-x="1705" arabic-form="isolated" 
d="M100 0l84 172h154v1053l194 59v-700q199 319 555 329q301 9 453 -235q90 -152 90 -395q0 -23 -1 -59t-3 -83t-3 -82.5t-1 -58.5h-1522zM1437 172q6 45 6 92q0 193 -81 336q-91 127 -261 137q-204 8 -387 -198q-143 -168 -190 -367h913z" />
    <glyph glyph-name="uniFEC2" unicode="&#x637;" horiz-adv-x="1806" arabic-form="final" 
d="M100 0l84 172h154v1053l194 59v-700q199 319 555 329q301 9 453 -235q102 -168 88 -506h203v-172h-1731zM1437 172q6 45 6 92q0 193 -81 336q-91 127 -261 137q-204 8 -387 -198q-143 -168 -190 -367h913z" />
    <glyph glyph-name="uniFEC3" unicode="&#x637;" horiz-adv-x="1587" arabic-form="initial" 
d="M-32 0v172h252v1053l194 59v-700q199 321 558 329q299 11 450 -235q90 -152 90 -395q0 -23 -1 -59t-3 -83t-3 -82.5t-1 -58.5h-1536zM1322 172q2 23 3 46.5t1 45.5q0 191 -80 336q-94 129 -262 137q-209 8 -385 -198q-146 -168 -193 -367h916z" />
    <glyph glyph-name="uniFEC4" unicode="&#x637;" horiz-adv-x="1685" arabic-form="medial" 
d="M-32 0v172h252v1053l194 59v-700q195 319 558 329q296 9 446 -235q104 -166 92 -506h201v-172h-1743zM1318 172q8 41 8 92q0 191 -80 336q-94 129 -266 137q-205 8 -381 -198q-150 -168 -193 -367h912z" />
    <glyph glyph-name="afii57432" unicode="&#x638;" horiz-adv-x="1705" arabic-form="isolated" 
d="M1077 1106q-41 0 -73 31.5t-32 74.5q0 45 32 77t73 32q43 0 74.5 -32t31.5 -77q0 -43 -31.5 -74.5t-74.5 -31.5zM100 0l84 172h154v1053l194 59v-700q199 319 555 329q301 9 453 -235q90 -152 90 -395q0 -23 -1 -59t-3 -83t-3 -82.5t-1 -58.5h-1522zM1437 172q6 45 6 92
q0 193 -81 336q-91 127 -261 137q-204 8 -387 -198q-143 -168 -190 -367h913z" />
    <glyph glyph-name="uniFEC6" unicode="&#x638;" horiz-adv-x="1806" arabic-form="final" 
d="M1077 1106q-41 0 -73 31.5t-32 74.5q0 45 32 77t73 32q43 0 74.5 -32t31.5 -77q0 -43 -31.5 -74.5t-74.5 -31.5zM100 0l84 172h154v1053l194 59v-700q199 319 555 329q301 9 453 -235q102 -168 88 -506h203v-172h-1731zM1437 172q6 45 6 92q0 193 -81 336
q-91 127 -261 137q-204 8 -387 -198q-143 -168 -190 -367h913z" />
    <glyph glyph-name="uniFEC7" unicode="&#x638;" horiz-adv-x="1587" arabic-form="initial" 
d="M961 1106q-43 0 -74.5 31.5t-31.5 74.5q0 45 31.5 77t74.5 32t74 -32t31 -77q0 -43 -31 -74.5t-74 -31.5zM-32 0v172h252v1053l194 59v-700q199 321 558 329q299 11 450 -235q90 -152 90 -395q0 -23 -1 -59t-3 -83t-3 -82.5t-1 -58.5h-1536zM1322 172q2 23 3 46.5t1 45.5
q0 191 -80 336q-94 129 -262 137q-209 8 -385 -198q-146 -168 -193 -367h916z" />
    <glyph glyph-name="uniFEC8" unicode="&#x638;" horiz-adv-x="1685" arabic-form="medial" 
d="M957 1106q-43 0 -73.5 31.5t-30.5 74.5q0 45 30.5 77t73.5 32q47 0 77 -32t30 -77q0 -43 -30 -74.5t-77 -31.5zM-32 0v172h252v1053l194 59v-700q195 319 558 329q296 9 446 -235q104 -166 92 -506h201v-172h-1743zM1318 172q8 41 8 92q0 191 -80 336q-94 129 -266 137
q-205 8 -381 -198q-150 -168 -193 -367h912z" />
    <glyph glyph-name="afii57433" unicode="&#x639;" horiz-adv-x="1118" arabic-form="isolated" 
d="M946 -313q-137 -80 -320 -80q-229 0 -379 131q-147 129 -147 340q0 160 77 283.5t214 185.5v67q0 138 84 234q86 96 243 96q146 0 244 -113l-129 -126q-49 71 -133 71q-121 0 -121 -139v-43h363l100 -170h-209h-207q-75 0 -135.5 -25.5t-103.5 -71.5t-65.5 -109.5
t-22.5 -139.5q0 -141 87 -220t240 -79q92 0 148 16q69 21 170 103z" />
    <glyph glyph-name="uniFECA" unicode="&#x639;" horiz-adv-x="1105" arabic-form="final" 
d="M946 -313q-137 -80 -320 -80q-229 0 -379 131q-147 129 -147 340q0 160 77 283.5t214 185.5v67q0 138 84 234q86 96 243 96q146 0 244 -113l-129 -126q-49 71 -133 71q-121 0 -121 -139v-43h363l100 -170h-166v-102q0 -150 142 -150h112v-172h-225q-219 0 -219 238v186
h-60q-75 0 -135.5 -25.5t-103.5 -71.5t-65.5 -109.5t-22.5 -139.5q0 -141 87 -220t240 -79q92 0 148 16q69 21 170 103z" />
    <glyph glyph-name="uniFECB" unicode="&#x639;" horiz-adv-x="1148" arabic-form="initial" 
d="M-20 0v172h227v350q0 170 109 285q110 117 305 117q164 0 289 -121l-146 -131q-73 88 -166 88q-92 0 -144 -58.5t-52 -146.5v-383h526l146 -172h-1094z" />
    <glyph glyph-name="uniFECC" unicode="&#x639;" horiz-adv-x="1085" arabic-form="medial" 
d="M-24 0v172h233v350q0 172 109 287q111 115 305 115q164 0 289 -121l-143 -131q-74 88 -168 88q-88 0 -142.5 -58.5t-54.5 -146.5v-383h707v-172h-1135z" />
    <glyph glyph-name="afii57434" unicode="&#x63a;" horiz-adv-x="1118" arabic-form="isolated" 
d="M712 1106q-43 0 -74.5 31.5t-31.5 74.5t31.5 74t74.5 31t75 -31t32 -74t-32 -74.5t-75 -31.5zM946 -313q-137 -80 -320 -80q-229 0 -379 131q-147 129 -147 340q0 160 77 283.5t214 185.5v67q0 138 84 234q86 96 243 96q146 0 244 -113l-129 -126q-49 71 -133 71
q-121 0 -121 -139v-43h363l100 -170h-209h-207q-75 0 -135.5 -25.5t-103.5 -71.5t-65.5 -109.5t-22.5 -139.5q0 -141 87 -220t240 -79q92 0 148 16q69 21 170 103z" />
    <glyph glyph-name="uniFECE" unicode="&#x63a;" horiz-adv-x="1105" arabic-form="final" 
d="M712 1106q-43 0 -74.5 31.5t-31.5 74.5t31.5 74t74.5 31t75 -31t32 -74t-32 -74.5t-75 -31.5zM946 -313q-137 -80 -320 -80q-229 0 -379 131q-147 129 -147 340q0 160 77 283.5t214 185.5v67q0 138 84 234q86 96 243 96q146 0 244 -113l-129 -126q-49 71 -133 71
q-121 0 -121 -139v-43h363l100 -170h-166v-102q0 -150 142 -150h112v-172h-225q-219 0 -219 238v186h-60q-75 0 -135.5 -25.5t-103.5 -71.5t-65.5 -109.5t-22.5 -139.5q0 -141 87 -220t240 -79q92 0 148 16q69 21 170 103z" />
    <glyph glyph-name="uniFECF" unicode="&#x63a;" horiz-adv-x="1148" arabic-form="initial" 
d="M605 1106q-43 0 -74 31.5t-31 74.5q0 45 31 77t74 32t74.5 -32t31.5 -77q0 -43 -31.5 -74.5t-74.5 -31.5zM-20 0v172h227v350q0 170 109 285q110 117 305 117q164 0 289 -121l-146 -131q-73 88 -166 88q-92 0 -144 -58.5t-52 -146.5v-383h526l146 -172h-1094z" />
    <glyph glyph-name="uniFED0" unicode="&#x63a;" horiz-adv-x="1085" arabic-form="medial" 
d="M607 1106q-41 0 -73 31.5t-32 74.5q0 45 32 77t73 32q43 0 74.5 -32t31.5 -77q0 -43 -31.5 -74.5t-74.5 -31.5zM-24 0v172h233v350q0 172 109 287q111 115 305 115q164 0 289 -121l-143 -131q-74 88 -168 88q-88 0 -142.5 -58.5t-54.5 -146.5v-383h707v-172h-1135z" />
    <glyph glyph-name="afii57441" unicode="&#x641;" horiz-adv-x="1654" arabic-form="isolated" 
d="M1169 1106q-43 0 -74.5 31.5t-31.5 74.5t31.5 74t74.5 31q45 0 77 -31t32 -74t-32 -74.5t-77 -31.5zM469 0q-82 0 -150.5 25.5t-117 71.5t-75 110.5t-26.5 144.5v207l193 197v-383q0 -201 202 -201h680q109 0 146 12q63 27 63 123h-276q-197 0 -273 88q-61 74 -61 240
q0 149 104.5 238.5t290.5 89.5q207 0 317 -105q93 -90 93 -223v-313q0 -183 -105 -259q-88 -63 -272 -63h-733zM1384 471v158q0 162 -215 162q-203 0 -203 -162q0 -105 29 -133q31 -25 156 -25h233z" />
    <glyph glyph-name="uniFED2" unicode="&#x641;" horiz-adv-x="1716" arabic-form="final" 
d="M1179 1106q-43 0 -74.5 31.5t-31.5 74.5q0 45 31.5 77t74.5 32t74 -32t31 -77q0 -43 -31 -74.5t-74 -31.5zM469 0q-82 0 -150.5 25.5t-117 71.5t-75 110.5t-26.5 144.5v207l193 197v-383q0 -201 202 -201h410q-125 135 -129 287q-6 196 82 317q104 148 317 148
q217 0 322 -148q88 -121 82 -317q-4 -154 -129 -291h290v-168h-444q-57 0 -117 12q-61 -12 -121 -12h-589zM1179 186q101 33 160 131q53 91 53 191q0 104 -54 174t-159 70q-104 0 -159.5 -70t-55.5 -174q0 -100 54 -191q59 -98 161 -131z" />
    <glyph glyph-name="uniFED3" unicode="&#x641;" horiz-adv-x="1011" arabic-form="initial" 
d="M527 1106q-43 0 -75 31.5t-32 74.5t32 74t75 31t74.5 -31t31.5 -74t-31.5 -74.5t-74.5 -31.5zM-24 0v172h559q111 0 143 12q66 29 66 123h-276q-197 0 -273 88q-65 76 -65 240q0 149 105.5 238.5t291.5 89.5q209 0 315 -105q97 -90 97 -223v-313q0 -181 -109 -259
q-84 -63 -270 -63h-584zM744 471v158q0 162 -217 162q-205 0 -205 -162q0 -107 31 -133q31 -25 153 -25h238z" />
    <glyph glyph-name="uniFED4" unicode="&#x641;" horiz-adv-x="1087" arabic-form="medial" 
d="M549 1106q-43 0 -74.5 31.5t-31.5 74.5q0 45 31.5 77t74.5 32t75 -32t32 -77q0 -43 -32 -74.5t-75 -31.5zM-24 0v168h301q-123 135 -127 291q-6 194 80 317q108 148 319 148q215 0 320 -148q86 -125 84 -317q-6 -154 -131 -291h293v-168h-445q-59 0 -121 12
q-57 -12 -120 -12h-453zM549 166q103 33 162 137q53 90 53 197q0 104 -55 178t-160 74q-100 0 -156.5 -74t-56.5 -178q0 -109 52 -197q63 -104 161 -137z" />
    <glyph glyph-name="afii57442" unicode="&#x642;" horiz-adv-x="1325" arabic-form="isolated" 
d="M985 1106q-43 0 -75 31.5t-32 74.5t32 74t75 31t74.5 -31t31.5 -74t-31.5 -74.5t-74.5 -31.5zM708 1106q-43 0 -74.5 31.5t-31.5 74.5t31.5 74t74.5 31q45 0 77 -31t32 -74t-32 -74.5t-77 -31.5zM274 307q0 -289 96 -403q97 -115 322 -115q151 -4 235 39q121 61 117 207
v8q-72 -66 -199 -66q-210 0 -313 148q-84 127 -84 321q0 197 84 318q103 147 313 147q404 0 404 -551q0 -34 -2 -78t-6 -98q-2 -59 -3 -97t-1 -54q-7 -426 -547 -426q-322 0 -457 170q-108 137 -133 467zM845 152q207 0 207 294q0 295 -207 295q-206 0 -206 -295
q0 -294 206 -294z" />
    <glyph glyph-name="uniFED6" unicode="&#x642;" horiz-adv-x="1400" arabic-form="final" 
d="M985 1106q-43 0 -75 31.5t-32 74.5t32 74t75 31t74.5 -31t31.5 -74t-31.5 -74.5t-74.5 -31.5zM708 1106q-43 0 -74.5 31.5t-31.5 74.5t31.5 74t74.5 31q45 0 77 -31t32 -74t-32 -74.5t-77 -31.5zM274 307q0 -289 96 -403q97 -115 322 -115q350 -2 352 211h-168
q-442 0 -442 434q0 199 82 330q108 160 319 160q217 0 318 -160q84 -131 84 -330v-266h188v-168h-190q-27 -393 -545 -393q-322 0 -457 170q-108 137 -133 467zM1044 172v262q0 320 -209 320t-209 -320q0 -149 66 -211q53 -51 188 -51h164z" />
    <glyph glyph-name="uniFED7" unicode="&#x642;" horiz-adv-x="1011" arabic-form="initial" 
d="M654 1106q-43 0 -75 31.5t-32 74.5t32 74t75 31q41 0 72.5 -31t31.5 -74t-31.5 -74.5t-72.5 -31.5zM375 1106q-43 0 -73.5 31.5t-30.5 74.5t30.5 74t73.5 31q45 0 77 -31t32 -74t-32 -74.5t-77 -31.5zM-24 0v172h559q111 0 143 12q66 29 66 123h-276q-197 0 -273 88
q-65 76 -65 240q0 149 105.5 238.5t291.5 89.5q209 0 315 -105q97 -90 97 -223v-313q0 -181 -109 -259q-84 -63 -270 -63h-584zM744 471v158q0 162 -217 162q-205 0 -205 -162q0 -107 31 -133q31 -25 153 -25h238z" />
    <glyph glyph-name="uniFED8" unicode="&#x642;" horiz-adv-x="1087" arabic-form="medial" 
d="M681 1106q-43 0 -75 31.5t-32 74.5t32 74t75 31t74.5 -31t31.5 -74t-31.5 -74.5t-74.5 -31.5zM404 1106q-43 0 -74.5 31.5t-31.5 74.5t31.5 74t74.5 31q45 0 77 -31t32 -74t-32 -74.5t-77 -31.5zM-24 0v168h301q-123 135 -127 291q-6 194 80 317q108 148 319 148
q215 0 320 -148q86 -125 84 -317q-6 -154 -131 -291h293v-168h-445q-59 0 -121 12q-57 -12 -120 -12h-453zM549 166q103 33 162 137q53 90 53 197q0 104 -55 178t-160 74q-100 0 -156.5 -74t-56.5 -178q0 -109 52 -197q63 -104 161 -137z" />
    <glyph glyph-name="afii57443" unicode="&#x643;" horiz-adv-x="1842" arabic-form="isolated" 
d="M469 0q-82 0 -150.5 25.5t-117 71.5t-75 110.5t-26.5 144.5v207l193 197l-2 -387q0 -201 202 -201h1076q2 78 -1.5 134t-7.5 89q-22 129 -98 199q-104 98 -274 98q-220 0 -359 -160l-133 125l637 664h254l-442 -465q47 6 90 6q213 0 356 -129q145 -127 170 -338
q6 -43 6 -391h-1298z" />
    <glyph glyph-name="uniFB8F" unicode="&#x6a9;" horiz-adv-x="1991" arabic-form="final" 
d="M469 0q-82 0 -150.5 25.5t-117 71.5t-75 110.5t-26.5 144.5v207l193 197l-2 -387q0 -201 202 -201h1076q1 46 0 84q0 27 -1 50q-4 56 -8 89q-22 129 -98 199q-104 98 -274 98q-220 0 -359 -160l-133 125l637 664h254l-442 -465q47 6 90 6q213 0 356 -129
q132 -116 165 -301q8 -39 11 -82q2 -33 3 -76t-1 -98h250v-172h-1550z" />
    <glyph glyph-name="uniFB90" unicode="&#x6a9;" horiz-adv-x="1212" arabic-form="initial" 
d="M-24 0v168h963q2 78 -1.5 134t-7.5 89q-22 129 -98 199q-104 98 -274 98q-220 0 -359 -160l-133 125l637 664h254l-442 -465q47 6 90 6q213 0 356 -129q145 -127 170 -338q6 -43 6 -391h-1161z" />
    <glyph glyph-name="uniFB91" unicode="&#x6a9;" horiz-adv-x="1361" arabic-form="medial" 
d="M-24 0v168h963q2 78 -1.5 134t-7.5 89q-22 129 -98 199q-104 98 -274 98q-220 0 -359 -160l-133 125l637 664h254l-442 -465q47 6 90 6q231 0 375 -143q139 -144 157 -369q2 -33 3 -76t-1 -98h250v-172h-1413z" />
    <glyph glyph-name="afii57509" unicode="&#x6af;" horiz-adv-x="1842" arabic-form="isolated" 
d="M469 0q-82 0 -150.5 25.5t-117 71.5t-75 110.5t-26.5 144.5v207l193 197l-2 -387q0 -201 202 -201h1076q2 78 -1.5 134t-7.5 89q-22 129 -98 199q-104 98 -274 98q-220 0 -359 -160l-133 125l637 664h254l-442 -465q47 6 90 6q213 0 356 -129q145 -127 170 -338
q6 -43 6 -391h-1298zM1206 1328l-565 -588l1 170l387 418h177z" />
    <glyph glyph-name="uniFB93" unicode="&#x6af;" horiz-adv-x="1991" arabic-form="final" 
d="M1206 1328l-565 -588l1 180l387 408h177zM469 0q-82 0 -150.5 25.5t-117 71.5t-75 110.5t-26.5 144.5v207l193 197l-2 -387q0 -201 202 -201h1076q1 46 0 84q0 27 -1 50q-4 56 -8 89q-22 129 -98 199q-104 98 -274 98q-220 0 -359 -160l-133 125l637 664h254l-442 -465
q47 6 90 6q213 0 356 -129q132 -116 165 -301q8 -39 11 -82q2 -33 3 -76t-1 -98h250v-172h-1550z" />
    <glyph glyph-name="uniFB94" unicode="&#x6af;" horiz-adv-x="1212" arabic-form="initial" 
d="M703 1317h254l-442 -465q47 6 90 6q213 0 356 -129q145 -127 170 -338q6 -43 6 -391h-1161v168h963q2 78 -1.5 134t-7.5 89q-22 129 -98 199q-104 98 -274 98q-220 0 -359 -160l-133 125zM576 1328l-565 -588l1 180l387 408h177z" />
    <glyph glyph-name="uniFB95" unicode="&#x6af;" horiz-adv-x="1361" arabic-form="medial" 
d="M939 252q0 27 -1 50q-4 56 -8 89q-22 129 -98 199q-104 98 -274 98q-220 0 -359 -160l-133 125l637 664h254l-442 -465q47 6 90 6q231 0 375 -143q113 -117 146 -287q8 -39 11 -82q2 -33 3 -76t-1 -98h250v-172h-1413v168h963q1 46 0 84zM576 1328l-565 -588l1 180
l387 408h177z" />
    <glyph glyph-name="afii57444" unicode="&#x644;" horiz-adv-x="1312" arabic-form="isolated" 
d="M295 307q0 -291 88 -403q90 -115 309 -115q174 0 254 49q96 66 96 213v1206l195 60l2 -1262q0 -448 -549 -448q-307 0 -447 170q-116 147 -143 467z" />
    <glyph glyph-name="uniFEDE" unicode="&#x644;" horiz-adv-x="1501" arabic-form="final" 
d="M295 307q0 -291 88 -403q90 -115 309 -115q174 0 254 49q96 66 96 213v1206l195 60v-1145h288v-172h-290q-33 -393 -545 -393q-307 0 -447 170q-116 147 -143 467z" />
    <glyph glyph-name="uniFEDF" unicode="&#x644;" horiz-adv-x="567" arabic-form="initial" 
d="M-24 0v172h121q201 0 201 209v879l194 57v-955q0 -155 -104 -260q-107 -102 -281 -102h-131z" />
    <glyph glyph-name="uniFEE0" unicode="&#x644;" horiz-adv-x="823" arabic-form="medial" 
d="M-24 0v172h154q202 0 202 209v879l195 61v-950q0 -199 201 -199h122v-172h-135q-176 0 -284 111q-101 -111 -289 -111h-166z" />
    <glyph glyph-name="afii57445" unicode="&#x645;" horiz-adv-x="1499" arabic-form="isolated" 
d="M100 -395v909q0 227 121 326q106 84 325 84h484q207 0 309 -146q84 -121 84 -309q0 -190 -84 -311q-102 -146 -309 -146q-209 0 -312 146q-83 121 -83 311q0 174 59 276h-111q-164 0 -223 -43q-65 -47 -65 -188v-850zM1030 184q200 0 200 285t-200 285q-201 0 -201 -285
t201 -285z" />
    <glyph glyph-name="uniFEE2" unicode="&#x645;" horiz-adv-x="1695" arabic-form="final" 
d="M100 -397v911q0 227 121 326q106 84 325 84h484q213 0 313 -144q80 -114 80 -307q0 -149 51 -219q58 -82 201 -82h45v-172h-57q-236 0 -320 176q-102 -145 -313 -145t-312 137q-83 119 -83 305q0 170 59 272h-111q-164 0 -223 -43q-65 -47 -65 -188v-854zM1030 201
q200 0 200 272q0 281 -200 281q-201 0 -201 -281q0 -272 201 -272z" />
    <glyph glyph-name="uniFEE3" unicode="&#x645;" horiz-adv-x="1124" arabic-form="initial" 
d="M-24 0v168h80q201 0 201 205v65q0 185 84 303q100 138 313 138q211 0 311 -138q84 -118 84 -303q0 -184 -84 -299q-102 -139 -311 -139q-176 0 -285 109q-98 -109 -301 -109h-92zM654 166q201 0 201 272q0 275 -201 275q-203 0 -203 -275q0 -272 203 -272z" />
    <glyph glyph-name="uniFEE4" unicode="&#x645;" horiz-adv-x="1361" arabic-form="medial" 
d="M-34 0v172h53q219 0 244 197q51 358 414 358q198 0 297 -92q86 -80 114 -266q35 -201 252 -201l41 4v-172h-26q-183 0 -281 129q-37 -129 -143.5 -200.5t-253.5 -71.5q-142 0 -246.5 64.5t-145.5 180.5q-90 -102 -253 -102h-66zM677 20q215 0 215 273q0 272 -215 272
q-217 0 -217 -272q0 -273 217 -273z" />
    <glyph glyph-name="afii57446" unicode="&#x646;" horiz-adv-x="1312" arabic-form="isolated" 
d="M549 637q0 43 31.5 74.5t74.5 31.5q45 0 75 -31.5t30 -74.5t-30 -74t-75 -31q-43 0 -74.5 31t-31.5 74zM293 227q0 -121 21.5 -204.5t69.5 -137t123.5 -78t182.5 -24.5q352 0 352 278v611l195 59v-690q0 -434 -549 -434q-367 0 -500 227q-94 162 -88 514l193 58v-179z
" />
    <glyph glyph-name="uniFEE6" unicode="&#x646;" horiz-adv-x="1544" arabic-form="final" 
d="M669 471q-43 0 -73.5 32t-30.5 75t30.5 73.5t73.5 30.5t75 -30.5t32 -73.5t-32 -75t-75 -32zM293 227q0 -121 21.5 -204.5t69.5 -137t123.5 -78t182.5 -24.5q352 0 352 278v611l195 59v-559h332v-172h-334q-27 -393 -547 -393q-367 0 -500 227q-94 162 -88 514l193 58
v-179z" />
    <glyph glyph-name="uniFEE7" unicode="&#x646;" horiz-adv-x="593" arabic-form="initial" 
d="M289 1106q-41 0 -72.5 31.5t-31.5 74.5q0 45 31.5 77t72.5 32q43 0 75 -32t32 -77q0 -43 -32 -74.5t-75 -31.5zM-24 0v168h147q203 0 203 209v489l193 58v-562q0 -159 -105 -260q-106 -102 -280 -102h-158z" />
    <glyph glyph-name="uniFEE8" unicode="&#x646;" arabic-form="medial" 
d="M406 1106q-43 0 -74.5 31.5t-31.5 74.5t31.5 74t74.5 31t75 -31t32 -74t-32 -74.5t-75 -31.5zM-24 0v168h135q205 0 205 209v489l192 58v-553q0 -203 203 -203h111v-168h-123q-180 0 -285 109q-104 -109 -291 -109h-147z" />
    <glyph glyph-name="afii57448" unicode="&#x648;" horiz-adv-x="972" arabic-form="isolated" 
d="M123 -152q172 -81 325 -71q221 12 246 243q-88 -49 -195 -49q-213 0 -315 148q-84 121 -84 311q0 193 84 313q102 146 315 146q236 0 330 -168q68 -127 68 -363v-66t-2 -83q-7 -98 -7 -129q-4 -213 -108 -334q-115 -139 -332 -139q-151 0 -239 53zM499 141q205 0 205 289
q0 291 -205 291q-206 0 -206 -291q0 -289 206 -289z" />
    <glyph glyph-name="uniFEEE" unicode="&#x648;" horiz-adv-x="1093" arabic-form="final" 
d="M120 -152q175 -77 322 -71q98 2 162.5 66.5t77.5 156.5h-160q-207 4 -318 123q-104 110 -104 295q0 200 90 327q109 152 318 152q391 0 391 -479q0 -47 -1 -109.5t-3 -140.5h223v-168h-242q-26 -170 -133 -274q-117 -119 -297 -119q-156 0 -240 53zM702 168l2 250
q0 145 -26 207q-43 102 -170 102q-213 0 -213 -309q0 -250 227 -250h180z" />
    <glyph glyph-name="afii57470" unicode="&#x647;" horiz-adv-x="1007" arabic-form="isolated" 
d="M188 150q-88 118 -88 319q0 199 88 317q109 148 328 148q223 0 329 -148q86 -120 86 -317q0 -201 -86 -319q-106 -150 -329 -150q-221 0 -328 150zM516 164q225 0 225 305q0 301 -225 301q-221 0 -221 -301q0 -305 221 -305z" />
    <glyph glyph-name="uniFEEA" unicode="&#x647;" horiz-adv-x="1206" arabic-form="final" 
d="M1097 0q-241 0 -305 143q-69 -143 -301 -143q-391 0 -391 469q0 455 391 455h416v-547q0 -209 201 -209h122v-168h-133zM503 766q-120 0 -167 -80q-41 -65 -41 -217q0 -150 41 -219q45 -82 167 -82q123 0 168 82q41 69 41 219v297h-209z" />
    <glyph glyph-name="uniFEEB" unicode="&#x647;" horiz-adv-x="1130" arabic-form="initial" 
d="M-30 0v172h270q-63 27 -63 219q0 129 57 211q74 107 219 107q148 0 217 -107q58 -82 58 -211q0 -151 -56 -219h185v166q0 248 -53 348q-70 137 -289 137h-445l224 172h245q318 0 437 -211q79 -147 79 -446v-338h-1085zM453 168q121 0 121 223q0 178 -121 178t-121 -178
q0 -223 121 -223z" />
    <glyph glyph-name="uniFEEC" unicode="&#x647;" horiz-adv-x="1421" arabic-form="medial" 
d="M-24 0v172h274q-16 35 -26 82t-12 106q-3 252 139 428q145 177 373 177q227 0 368 -129q94 -84 121 -224q23 -108 23 -352v-88h210v-172h-1470zM1045 172v88q0 270 -33 356q-61 181 -288 177q-113 0 -179 -33q158 0 246 -131q74 -109 74 -260q0 -152 -64 -197h244z
M537 172q76 0 115 56.5t39 142.5q0 88 -43 159q-43 72 -111 72q-67 0 -110 -72q-41 -71 -41 -159q0 -86 37.5 -142.5t113.5 -56.5z" />
    <glyph glyph-name="afii57417" unicode="&#x629;" horiz-adv-x="1007" arabic-form="isolated" 
d="M188 150q-88 118 -88 319q0 199 88 317q109 148 328 148q223 0 329 -148q86 -120 86 -317q0 -201 -86 -319q-106 -150 -329 -150q-221 0 -328 150zM516 164q225 0 225 305q0 301 -225 301q-221 0 -221 -301q0 -305 221 -305zM220 1187l43 70h58v40q0 142 131 142
q51 0 94 -43l-45 -58q-21 31 -55 31q-50 0 -50 -72v-40h162v-70h-338z" />
    <glyph glyph-name="uniFBA5" unicode="&#x6c0;" horiz-adv-x="1206" arabic-form="final" 
d="M1097 0q-241 0 -305 143q-69 -143 -301 -143q-391 0 -391 469q0 455 391 455h416v-547q0 -209 201 -209h122v-168h-133zM503 766q-120 0 -167 -80q-41 -65 -41 -217q0 -150 41 -219q45 -82 167 -82q123 0 168 82q41 69 41 219v297h-209zM220 1187l43 70h58v40
q0 142 131 142q51 0 94 -43l-45 -58q-21 31 -55 31q-50 0 -50 -72v-40h162v-70h-338z" />
    <glyph glyph-name="afii57450" unicode="&#x64a;" horiz-adv-x="1323" arabic-form="isolated" 
d="M297 297q0 -285 92 -397q92 -115 305 -115q145 0 235 53q115 66 115 197v241h-508v285q0 166 104.5 264.5t282.5 98.5q191 0 324 -146l-64 -188q-106 166 -249 166q-203 0 -203 -209v-101h506v-411q0 -225 -172 -338q-144 -90 -371 -90q-318 0 -453 176
q-112 137 -141 455z" />
    <glyph glyph-name="uniFBFD" unicode="&#x6cc;" horiz-adv-x="1136" arabic-form="final" 
d="M405 635q-121 -270 -121 -479q0 -179 88 -277t260 -96q150 0 211 27q123 45 136 190q-191 16 -252 156l90 184q18 -49 39.5 -82t48 -52.5t62.5 -28.5t85 -9h84v-168q13 -195 -139 -299q-133 -94 -365 -94q-270 0 -409 151q-123 131 -123 361q0 186 82 381z" />
    <glyph glyph-name="uniFBFE" unicode="&#x6cc;" horiz-adv-x="593" arabic-form="initial" 
d="M-24 0v168h147q203 0 203 209v489l193 58v-562q0 -159 -105 -260q-106 -102 -280 -102h-158zM263 -287q0 43 31.5 74t76.5 31q43 0 74 -31t31 -74t-31 -74.5t-74 -31.5q-45 0 -76.5 31.5t-31.5 74.5zM95 -393q-43 0 -75 31.5t-32 74.5t32 74t75 31q41 0 72.5 -31
t31.5 -74t-31.5 -74.5t-72.5 -31.5z" />
    <glyph glyph-name="uniFBFF" unicode="&#x6cc;" arabic-form="medial" 
d="M-24 0v168h135q205 0 205 209v489l192 58v-553q0 -203 203 -203h111v-168h-123q-180 0 -285 109q-104 -109 -291 -109h-147zM551 -393q-43 0 -73.5 31.5t-30.5 74.5t30.5 74t73.5 31t75 -31t32 -74t-32 -74.5t-75 -31.5zM277 -393q-45 0 -74.5 31.5t-29.5 74.5t29.5 74
t74.5 31q43 0 75 -31t32 -74t-32 -74.5t-75 -31.5z" />
    <glyph glyph-name="afii57449" unicode="&#x649;" horiz-adv-x="1323" arabic-form="isolated" 
d="M297 297q0 -285 92 -397q92 -115 305 -115q145 0 235 53q115 66 115 197v241h-508v285q0 166 104.5 264.5t282.5 98.5q191 0 324 -146l-64 -188q-106 166 -249 166q-203 0 -203 -209v-101h506v-411q0 -225 -172 -338q-144 -90 -371 -90q-318 0 -453 176
q-112 137 -141 455z" />
    <glyph glyph-name="uniFEF0" unicode="&#x649;" horiz-adv-x="1136" arabic-form="final" 
d="M405 635q-121 -270 -121 -479q0 -179 88 -277t260 -96q150 0 211 27q123 45 136 190q-191 16 -252 156l90 184q18 -49 39.5 -82t48 -52.5t62.5 -28.5t85 -9h84v-168q13 -195 -139 -299q-133 -94 -365 -94q-270 0 -409 151q-123 131 -123 361q0 186 82 381z" />
    <glyph glyph-name="glyph1" horiz-adv-x="0" 
 />
    <glyph glyph-name="glyph2" horiz-adv-x="564" 
 />
    <glyph glyph-name="space" unicode=" " horiz-adv-x="492" 
 />
    <glyph glyph-name="exclam" unicode="!" horiz-adv-x="436" 
d="M143 373l-43 944h236l-41 -944h-152zM112 0v207h213v-207h-213z" />
    <glyph glyph-name="percent" unicode="%" horiz-adv-x="976" 
d="M315 1094v188l154 -45v-186zM100 0l637 1368h139l-637 -1368h-139zM514 121v186l153 -45v-186z" />
    <glyph glyph-name="parenleft" unicode="(" horiz-adv-x="628" 
d="M373 -305l-86 86q-43 45 -68 92q-43 80 -43 221v903q0 142 43 220q35 57 154 178l131 -131q-21 -17 -47.5 -47.5t-59.5 -75.5q-26 -54 -26 -156v-879q0 -106 26 -157q23 -41 107 -125z" />
    <glyph glyph-name="parenright" unicode=")" horiz-adv-x="628" 
d="M124 -176q39 37 106 125q29 53 29 157v879q0 98 -29 156q-10 20 -37.5 51t-68.5 72l131 131q33 -35 53.5 -56.5t30.5 -31.5q43 -43 70 -90q43 -78 43 -220v-903q0 -141 -43 -221q-33 -59 -154 -178z" />
    <glyph glyph-name="asterisk" unicode="*" horiz-adv-x="798" 
d="M141 125l-41 72l227 125l-227 127l41 69l221 -135l-4 262h82l-4 -262l221 135l41 -69l-227 -127l227 -125l-41 -72l-221 137l4 -262h-82l4 262z" />
    <glyph glyph-name="plus" unicode="+" horiz-adv-x="1015" 
d="M417 0v317h-317v179h317v317h181v-317h315v-179h-315v-317h-181z" />
    <glyph glyph-name="comma" unicode="," horiz-adv-x="586" 
d="M420 242l-94 -96l-150 -150l-63 59l112 114q-50 50 -50 109q0 88 112 198l77 -77l56 -60v-97z" />
    <glyph glyph-name="hyphen" unicode="-" horiz-adv-x="954" 
d="M100 408v153h754v-153h-754z" />
    <glyph glyph-name="period" unicode="." horiz-adv-x="477" 
d="M135 209v254l207 -55v-254z" />
    <glyph glyph-name="slash" unicode="/" horiz-adv-x="481" 
d="M-186 0l659 1317h193l-662 -1317h-190z" />
    <glyph glyph-name="zero" unicode="0" horiz-adv-x="755" 
d="M452 -4q-55 0 -95 40t-40 97q0 55 40 96t95 41q60 0 99.5 -41t39.5 -96q0 -57 -39.5 -97t-99.5 -40z" />
    <glyph glyph-name="zero" unicode="&#x6f0;" horiz-adv-x="755" 
d="M452 -4q-55 0 -95 40t-40 97q0 55 40 96t95 41q60 0 99.5 -41t39.5 -96q0 -57 -39.5 -97t-99.5 -40z" />
    <glyph glyph-name="zero" unicode="&#x660;" horiz-adv-x="755" 
d="M452 -4q-55 0 -95 40t-40 97q0 55 40 96t95 41q60 0 99.5 -41t39.5 -96q0 -57 -39.5 -97t-99.5 -40z" />
    <glyph glyph-name="one" unicode="1" horiz-adv-x="462" 
d="M135 61v1256h193v-1317z" />
    <glyph glyph-name="one" unicode="&#x6f1;" horiz-adv-x="462" 
d="M135 61v1256h193v-1317z" />
    <glyph glyph-name="one" unicode="&#x661;" horiz-adv-x="462" 
d="M135 61v1256h193v-1317z" />
    <glyph glyph-name="two" unicode="2" horiz-adv-x="837" 
d="M135 61v1260h193v-342q14 -125 112 -125q45 0 62 53q2 8 2 29.5t2 60.5v324h196v-338q-2 -148 -71 -217q-70 -94 -191 -90q-55 0 -112 33v-709z" />
    <glyph glyph-name="two" unicode="&#x6f2;" horiz-adv-x="837" 
d="M135 61v1260h193v-342q14 -125 112 -125q45 0 62 53q2 8 2 29.5t2 60.5v324h196v-338q-2 -148 -71 -217q-70 -94 -191 -90q-55 0 -112 33v-709z" />
    <glyph glyph-name="two" unicode="&#x662;" horiz-adv-x="837" 
d="M135 61v1260h193v-342q14 -125 112 -125q45 0 62 53q2 8 2 29.5t2 60.5v324h196v-338q-2 -148 -71 -217q-70 -94 -191 -90q-55 0 -112 33v-709z" />
    <glyph glyph-name="three" unicode="3" horiz-adv-x="1212" 
d="M135 61v1260h193v-342q14 -125 112 -125q45 0 62 53q2 8 2 29.5t2 60.5v324h196v-338q23 -129 111 -129q47 0 61 43q6 25 6 100v324h197v-336q0 -309 -264 -309q-121 0 -182 90q-70 -94 -191 -90q-55 0 -112 33v-709z" />
    <glyph glyph-name="three" unicode="&#x6f3;" horiz-adv-x="1212" 
d="M135 61v1260h193v-342q14 -125 112 -125q45 0 62 53q2 8 2 29.5t2 60.5v324h196v-338q23 -129 111 -129q47 0 61 43q6 25 6 100v324h197v-336q0 -309 -264 -309q-121 0 -182 90q-70 -94 -191 -90q-55 0 -112 33v-709z" />
    <glyph glyph-name="three" unicode="&#x663;" horiz-adv-x="1212" 
d="M135 61v1260h193v-342q14 -125 112 -125q45 0 62 53q2 8 2 29.5t2 60.5v324h196v-338q23 -129 111 -129q47 0 61 43q6 25 6 100v324h197v-336q0 -309 -264 -309q-121 0 -182 90q-70 -94 -191 -90q-55 0 -112 33v-709z" />
    <glyph glyph-name="four" unicode="4" horiz-adv-x="1116" 
d="M328 1045q27 128 146 202q59 74 266 74h205v-164h-205q-232 0 -232 -223q0 -98 62.5 -153.5t161.5 -55.5h180l84 -172h-264q-174 0 -295 102q-89 72 -109 157v-812l-193 61v1260h193v-276z" />
    <glyph glyph-name="four" unicode="&#x6f4;" horiz-adv-x="1116" 
d="M328 1045q27 128 146 202q59 74 266 74h205v-164h-205q-232 0 -232 -223q0 -98 62.5 -153.5t161.5 -55.5h180l84 -172h-264q-174 0 -295 102q-89 72 -109 157v-812l-193 61v1260h193v-276z" />
    <glyph glyph-name="four" unicode="&#x664;" horiz-adv-x="1116" 
d="M328 1045q27 128 146 202q59 74 266 74h205v-164h-205q-232 0 -232 -223q0 -98 62.5 -153.5t161.5 -55.5h180l84 -172h-264q-174 0 -295 102q-89 72 -109 157v-812l-193 61v1260h193v-276z" />
    <glyph glyph-name="five" unicode="5" horiz-adv-x="1101" 
d="M553 1208q454 -208 483 -762q0 -192 -100 -313q-115 -133 -385 -133q-255 0 -370 133q-106 121 -106 313q46 547 478 762zM551 1003q-221 -170 -281 -557q0 -280 281 -280q291 0 291 280q-70 387 -291 557z" />
    <glyph glyph-name="five" unicode="&#x6f5;" horiz-adv-x="1101" 
d="M553 1208q454 -208 483 -762q0 -192 -100 -313q-115 -133 -385 -133q-255 0 -370 133q-106 121 -106 313q46 547 478 762zM551 1003q-221 -170 -281 -557q0 -280 281 -280q291 0 291 280q-70 387 -291 557z" />
    <glyph glyph-name="five" unicode="&#x665;" horiz-adv-x="1101" 
d="M553 1208q454 -208 483 -762q0 -192 -100 -313q-115 -133 -385 -133q-255 0 -370 133q-106 121 -106 313q46 547 478 762zM551 1003q-221 -170 -281 -557q0 -280 281 -280q291 0 291 280q-70 387 -291 557z" />
    <glyph glyph-name="six" unicode="6" horiz-adv-x="1060" 
d="M735 61v1022q0 64 -55 70h-545v164h557q70 0 125 -25q109 -53 109 -188v-1104z" />
    <glyph glyph-name="six" unicode="&#x6f6;" horiz-adv-x="1060" 
d="M735 61v1022q0 64 -55 70h-545v164h557q70 0 125 -25q109 -53 109 -188v-1104z" />
    <glyph glyph-name="six" unicode="&#x666;" horiz-adv-x="1060" 
d="M735 61v1022q0 64 -55 70h-545v164h557q70 0 125 -25q109 -53 109 -188v-1104z" />
    <glyph glyph-name="seven" unicode="7" horiz-adv-x="1363" 
d="M594 0l-459 1317h209l338 -1030l338 1030h209l-461 -1317h-174z" />
    <glyph glyph-name="seven" unicode="&#x6f7;" horiz-adv-x="1363" 
d="M594 0l-459 1317h209l338 -1030l338 1030h209l-461 -1317h-174z" />
    <glyph glyph-name="seven" unicode="&#x667;" horiz-adv-x="1363" 
d="M594 0l-459 1317h209l338 -1030l338 1030h209l-461 -1317h-174z" />
    <glyph glyph-name="eight" unicode="8" horiz-adv-x="1363" 
d="M135 0l459 1317h174l461 -1317h-209l-338 1032l-338 -1032h-209z" />
    <glyph glyph-name="eight" unicode="&#x6f8;" horiz-adv-x="1363" 
d="M135 0l459 1317h174l461 -1317h-209l-338 1032l-338 -1032h-209z" />
    <glyph glyph-name="eight" unicode="&#x668;" horiz-adv-x="1363" 
d="M135 0l459 1317h174l461 -1317h-209l-338 1032l-338 -1032h-209z" />
    <glyph glyph-name="nine" unicode="9" horiz-adv-x="1067" 
d="M737 0v451q-88 -50 -205 -50q-211 0 -315 146q-82 119 -82 311q0 195 82 313q104 146 315 146q199 0 305 -135q95 -119 95 -301v-820zM532 569q207 0 207 289q0 291 -207 291t-207 -291q0 -289 207 -289z" />
    <glyph glyph-name="nine" unicode="&#x6f9;" horiz-adv-x="1067" 
d="M737 0v451q-88 -50 -205 -50q-211 0 -315 146q-82 119 -82 311q0 195 82 313q104 146 315 146q199 0 305 -135q95 -119 95 -301v-820zM532 569q207 0 207 289q0 291 -207 291t-207 -291q0 -289 207 -289z" />
    <glyph glyph-name="nine" unicode="&#x669;" horiz-adv-x="1067" 
d="M737 0v451q-88 -50 -205 -50q-211 0 -315 146q-82 119 -82 311q0 195 82 313q104 146 315 146q199 0 305 -135q95 -119 95 -301v-820zM532 569q207 0 207 289q0 291 -207 291t-207 -291q0 -289 207 -289z" />
    <glyph glyph-name="colon" unicode=":" horiz-adv-x="753" 
d="M452 518q-55 0 -95 41t-40 96q0 58 40 98t95 40q60 0 98.5 -40t38.5 -98q0 -55 -38.5 -96t-98.5 -41zM452 -4q-55 0 -95 40t-40 97q0 55 40 96t95 41q60 0 98.5 -41t38.5 -96q0 -57 -38.5 -97t-98.5 -40z" />
    <glyph glyph-name="equal" unicode="=" horiz-adv-x="1015" 
d="M100 793v180h813v-180h-813zM100 426v178h813v-178h-813z" />
    <glyph glyph-name="bracketleft" unicode="[" horiz-adv-x="675" 
d="M178 -172v1626h414v-170h-224v-1286h224v-170h-414z" />
    <glyph glyph-name="bracketright" unicode="]" horiz-adv-x="675" 
d="M83 -172v170h223v1286h-223v170h412v-1626h-412z" />
    <glyph glyph-name="braceleft" unicode="{" horiz-adv-x="784" 
d="M557 -172q-141 0 -205.5 65.5t-64.5 196.5v316q0 79 -35 115t-88 36h-70v168h70q53 0 88 36t35 113v318q0 262 270 262h135v-172h-76q-41 0 -66.5 -6t-41 -22.5t-21.5 -46t-6 -74.5v-304q0 -135 -127 -190q127 -53 127 -188v-301q0 -103 35 -132q29 -18 100 -18h76v-172
h-135z" />
    <glyph glyph-name="braceright" unicode="}" horiz-adv-x="784" 
d="M94 -172v172h72q43 0 69.5 6t42 22.5t21.5 45t6 76.5v301q0 135 123 188q-123 55 -123 190v304q0 102 -39 129q-22 20 -100 20h-72v172h133q268 0 268 -262v-318q0 -77 36 -113t91 -36h70v-168h-70q-55 0 -91 -36t-36 -115v-316q0 -262 -268 -262h-133z" />
    <glyph glyph-name="guillemotleft" unicode="&#xab;" horiz-adv-x="931" 
d="M700 0q-135 190 -135 377q0 194 135 379h139q-113 -226 -113 -381q0 -156 113 -375h-139zM423 0q-137 188 -137 377q0 196 137 379h137q-110 -228 -110 -381q0 -154 110 -375h-137z" />
    <glyph glyph-name="guillemotright" unicode="&#xbb;" horiz-adv-x="931" 
d="M370 -2q109 227 109 377q0 149 -111 381h138q139 -189 139 -379q0 -187 -137 -379h-138zM94 -2q111 223 111 377q0 149 -111 381h137q137 -187 137 -379q0 -187 -137 -379h-137z" />
    <glyph glyph-name="multiply" unicode="&#xd7;" horiz-adv-x="993" 
d="M100 119l276 276l-276 275l121 121l274 -275l275 275l121 -121l-275 -275l275 -276l-121 -119l-275 274l-274 -274z" />
    <glyph glyph-name="divide" unicode="&#xf7;" horiz-adv-x="1007" 
d="M413 694v170h181v-170h-181zM100 410v157h807v-157h-807zM413 111v170h181v-170h-181z" />
    <glyph glyph-name="afii61664" unicode="&#x200c;" horiz-adv-x="150" 
 />
    <glyph glyph-name="afii301" unicode="&#x200d;" horiz-adv-x="150" 
 />
    <glyph glyph-name="afii299" unicode="&#x200e;" horiz-adv-x="577" 
d="M377 1468l-124 -125l-31 26l82 80h-162v-1453h-42v1492h199l-77 76l31 28z" />
    <glyph glyph-name="afii300" unicode="&#x200f;" horiz-adv-x="580" 
d="M380 -4h-42v1453h-161l78 -80l-26 -26l-129 125l129 124l26 -28l-75 -76h200v-1492z" />
    <glyph glyph-name="quoteleft" unicode="&#x2018;" horiz-adv-x="745" 
d="M100 1556l441 441v-150l-296 -320v-146l42 -51l43 64h134l74 -73v-129l-63 -45l-56 -41h-191l-128 130v320z" />
    <glyph glyph-name="quoteright" unicode="&#x2019;" horiz-adv-x="741" 
d="M541 1547l-441 -441v150l296 320v146l-42 51l-43 -64h-134l-74 73v129l63 45l56 41h191l128 -130v-320z" />
    <glyph glyph-name="quotedblleft" unicode="&#x201c;" horiz-adv-x="1083" 
d="M100 1495l94 94l150 148l63 -59l-112 -112l125 -122l-187 -186l-77 80l-56 56v101zM563 1495l93 94l153 148l61 -59l-112 -112l125 -122l-184 -186l-80 80l-56 56v101z" />
    <glyph glyph-name="quotedblright" unicode="&#x201d;" horiz-adv-x="1083" 
d="M100 1553l183 184l81 -77l56 -56v-80l-18 -25l-17 -25l-64 -65l-149 -151l-62 61l115 112zM563 1553l184 184l80 -77l56 -56v-101l-94 -94l-151 -151l-61 61l112 112z" />
    <glyph glyph-name="guilsinglleft" unicode="&#x2039;" horiz-adv-x="823" 
d="M567 936h183l-480 -479l480 -477h-183l-479 477z" />
    <glyph glyph-name="guilsinglright" unicode="&#x203a;" horiz-adv-x="888" 
d="M595 457l-479 479h182l480 -479l-480 -477h-182z" />
    <glyph glyph-name="afii57388" unicode="&#x60c;" horiz-adv-x="471" 
d="M124 -2v332l221 178v-510h-221z" />
    <glyph glyph-name="afii57403" unicode="&#x61b;" horiz-adv-x="753" 
d="M342 573v334l219 178v-512h-219zM452 0q-57 0 -96 40t-39 95q0 60 39 99.5t96 39.5q55 0 96 -39.5t41 -99.5q0 -55 -41 -95t-96 -40z" />
    <glyph glyph-name="afii57407" unicode="&#x61f;" horiz-adv-x="954" 
d="M370 354q0 115 -32 160q-37 51 -74 100.5t-76 100.5q-88 137 -88 235q0 164 109 262q110 99 270 99q158 0 266 -103q109 -102 109 -262h-193q0 82 -48 137.5t-134 55.5q-82 0 -133 -54.5t-51 -134.5q0 -69 88 -194q28 -37 58 -74t58 -76q50 -65 58 -117q8 -30 8 -135
h-195zM385 0v168h170v-168h-170z" />
    <glyph glyph-name="afii57440" unicode="&#x640;" horiz-adv-x="329" 
d="M-24 0v172h379v-172h-379z" />
    <glyph glyph-name="afii57451" unicode="&#x64b;" horiz-adv-x="722" 
d="M576 1789l-486 -120l-26 99l487 123zM582 1608l-486 -123l-27 100l487 125z" />
    <glyph glyph-name="afii57452" unicode="&#x64c;" horiz-adv-x="785" 
d="M530 1764h-105l-46 -34v-55l46 -42l30 1l75 5v125zM626 1571l-168 -40l-355 -83l-33 89l33 17l53 24v79h-40l-32 -23l-39 58l47 65l56 -3l91 -2v-139l-29 -42l97 36l-27 45v123l60 48l54 43h119l54 -44l59 -47v-204z" />
    <glyph glyph-name="afii57453" unicode="&#x64d;" horiz-adv-x="1" 
d="M508 -549l-486 -120l-27 99l488 123zM513 -731l-485 -121l-27 99l487 125z" />
    <glyph glyph-name="afii57454" unicode="&#x64e;" horiz-adv-x="716" 
d="M579 1711l-486 -122l-27 99l488 125z" />
    <glyph glyph-name="afii57455" unicode="&#x64f;" horiz-adv-x="743" 
d="M519 1777h-106l-22 -17l-27 -19v-56l50 -40l29 3l76 6v123zM296 1624l-28 45v116l61 51l53 45h121l54 -45l58 -47v-204l-168 -39l-346 -82l-25 94l84 24z" />
    <glyph glyph-name="afii57456" unicode="&#x650;" horiz-adv-x="0" 
d="M511 -772l-485 -121l-26 99l486 124z" />
    <glyph glyph-name="afii57457" unicode="&#x651;" horiz-adv-x="757" 
d="M610 1618l-31 -41l-34 -43h-150l-49 69l-53 -127h-236v204l55 116l77 -39l-32 -84v-75h102l19 62l11 36l-2 79l29 16l68 35v-172h122l-4 52l-1 30l-15 24l-8 12l-21 32l78 57l32 -41l24 -63l19 -55v-84z" />
    <glyph glyph-name="afii57458" unicode="&#x652;" horiz-adv-x="614" 
d="M355 1713l-53 50h-71l-51 -56v-120h175v126zM473 1589l-119 -119h-170l-121 122v165l124 123h162l124 -123v-168z" />
    <glyph glyph-name="uniE820" unicode="&#xe820;" horiz-adv-x="716" 
d="M585 1784l-486 -122l-27 99l488 125z" />
    <glyph glyph-name="uniE821" unicode="&#xe821;" horiz-adv-x="743" 
d="M511 1836h-106l-22 -17l-27 -19v-56l50 -40l29 3l76 6v123zM288 1683l-28 45v116l61 51l53 45h121l54 -45l58 -47v-204l-168 -39l-346 -82l-25 94l84 24z" />
    <glyph glyph-name="uniE822" unicode="&#xe822;" horiz-adv-x="614" 
d="M355 1713l-53 50h-71l-51 -56v-120h175v126zM473 1589l-119 -119h-170l-121 122v165l124 123h162l124 -123v-168z" />
    <glyph glyph-name="uniE823" unicode="&#xe823;" horiz-adv-x="722" 
d="M580 1861l-486 -120l-26 99l487 123zM586 1680l-486 -123l-27 100l487 125z" />
    <glyph glyph-name="uniE824" unicode="&#xe824;" horiz-adv-x="785" 
d="M542 1829h-105l-46 -34v-55l46 -42l30 1l75 5v125zM638 1636l-168 -40l-355 -83l-33 89l33 17l53 24v79h-40l-32 -23l-39 58l47 65l56 -3l91 -2v-139l-29 -42l97 36l-27 45v123l60 48l54 43h119l54 -44l59 -47v-204z" />
    <glyph glyph-name="uniE825" unicode="&#xe825;" horiz-adv-x="757" 
d="M632 1624l-31 -41l-34 -43h-150l-49 69l-53 -127h-236v204l55 116l77 -39l-32 -84v-75h102l19 62l11 36l-2 79l29 16l68 35v-172h122l-4 52l-1 30l-15 24l-8 12l-21 32l78 57l32 -41l24 -63l19 -55v-84z" />
    <glyph glyph-name="uniE826" unicode="&#xe826;" horiz-adv-x="2" 
d="M443 -785l-485 -121l-26 99l486 124z" />
    <glyph glyph-name="uniE827" unicode="&#xe827;" horiz-adv-x="1" 
d="M458 -548l-486 -120l-27 99l488 123zM463 -730l-485 -121l-27 99l487 125z" />
    <glyph glyph-name="uniE828" unicode="&#xe828;" horiz-adv-x="761" 
d="M620 1632l-31 -41l-34 -43h-150l-49 69l-53 -127h-236v204l55 116l77 -39l-32 -84v-75h102l19 62l11 36l-2 79l29 16l68 35v-172h122l-4 52l-1 30l-15 24l-8 12l-21 32l78 57l32 -41l24 -63l19 -55v-84zM575 2112l-486 -122l-27 99l488 125z" />
    <glyph glyph-name="uniE829" unicode="&#xe829;" horiz-adv-x="769" 
d="M547 2065h-108l-23 -18l-26 -19v-57l51 -39l29 2l77 5v126zM661 1591l-32 -41l-35 -44h-152l-51 71l-54 -129h-241v208l56 118l79 -39l-33 -86v-78h106l19 66l9 34l-1 81l29 17l70 36v-176h125l-3 53l-2 33l-45 68l80 59l34 -45l23 -63l19 -53v-90zM320 1909l-28 45v119
l61 51l54 45h123l56 -44l59 -46v-211l-172 -40l-352 -81l-25 95l86 24z" />
    <glyph glyph-name="uniE82A" unicode="&#xe82a;" horiz-adv-x="769" 
d="M651 1601l-33 -41l-34 -44h-153l-50 71l-54 -129h-241v208l56 118l78 -40l-32 -85v-78h104l20 65l10 37l-3 79l31 17l70 36v-176h123l-3 53l-1 29l-44 71l79 59l33 -43l24 -64l20 -55v-88zM627 1969l-495 -122l-27 101l497 127zM622 2156l-496 -123l-28 102l498 126z" />
    <glyph glyph-name="uniE82B" unicode="&#xe82b;" horiz-adv-x="784" 
d="M649 1554l-31 -41l-34 -43h-150l-49 69l-53 -127h-236v204l55 116l77 -39l-32 -84v-75h102l19 62l11 36l-2 79l29 16l68 35v-172h122l-4 52l-1 30l-15 24l-8 12l-21 32l78 57l32 -41l24 -63l19 -55v-84zM558 2132h-105l-46 -34v-55l46 -42l30 1l75 5v125zM654 1939
l-168 -40l-355 -83l-33 89l33 17l53 24v79h-40l-32 -23l-39 58l47 65l56 -3l91 -2v-139l-29 -42l97 36l-27 45v123l60 48l54 43h119l54 -44l59 -47v-204z" />
    <glyph glyph-name="uniE82C" unicode="&#xe82c;" horiz-adv-x="769" 
d="M626 1579l-495 -123l-27 102l498 126zM645 1812l-33 -41l-34 -44h-153l-50 71l-54 -129h-241v208l56 118l79 -40l-33 -86v-77h106l18 64l10 35l-1 81l29 18l70 35v-176h125l-3 54l-2 32l-45 68l79 60l77 -103v-148z" />
    <glyph glyph-name="uniE82D" unicode="&#xe82d;" horiz-adv-x="769" 
d="M620 1777l-495 -123l-27 102l498 126zM638 1574l-495 -123l-27 102l497 125zM639 2010l-33 -41l-34 -44h-153l-50 71l-54 -129h-241v208l56 118l79 -40l-33 -86v-77h106l18 65l10 34l-1 82l29 17l70 35v-175h125l-3 53l-2 32l-45 68l79 60l77 -103v-148z" />
    <glyph glyph-name="afii57409" unicode="&#x621;" horiz-adv-x="1155" 
d="M81 0l147 174h142v55q0 170 96 283q102 123 277 123q147 0 266 -129l-131 -129q-66 84 -156 84q-76 0 -123 -56.5t-47 -144.5v-86h490v-174h-961z" />
    <glyph glyph-name="uniFD3E" unicode="&#xfd3e;" horiz-adv-x="1042" 
d="M952 -443q0 -5 -20 -10q-110 0 -289 233q-108 143 -175 322q-174 0 -176 44q115 115 115 189q-56 0 -184 -125q-23 0 -46 141q-93 46 -93 79q0 49 90 92q0 133 41 133q56 -56 87 -79q59 -38 105 -44q-3 54 -46 108q-41 41 -82 84q0 47 184 52q118 340 338 514
q77 59 108 59q15 0 15 -20q-79 -98 -184 -251q-77 -144 -105 -315q87 -8 87 -36q-115 -102 -123 -189q49 0 102 43l82 82q49 0 49 -138q92 -41 92 -87q0 -31 -84 -82q0 -131 -46 -133q-95 105 -192 117q0 -58 128 -192q0 -17 -93 -38q57 -315 297 -522q18 -13 18 -31z
M614 435q0 110 -110 110t-110 -110q0 -41 34.5 -74t75.5 -33q110 0 110 107z" />
    <glyph glyph-name="copyright" unicode="&#xa9;" horiz-adv-x="1816" 
d="M738 2285h1l2 -2v-209h1q96 68 234 68q176 0 345 -106q43 -27 97 -73q54 -52 70 -72q18 -20 18 -22l-1 -1q-1 0 -75 74q-59 53 -97 76q-47 31 -97 53q-127 56 -253 56q-148 0 -242 -75v-109l1 -420q33 -45 85 -104q83 -89 165 -164l126 -117v0q16 4 30 4q34 0 88 -29
q29 -13 44 -13q16 0 23 14v6q0 37 -149 177q-98 93 -158 147q-49 43 -130 124q-63 67 -76 91q-23 35 -23 63q0 43 48 58q9 2 17 2q22 0 65 -22q22 -10 38 -10h4q26 0 70 40l81 74q8 2 55 7v0q3 0 4 -2q-1 -3 -24 -23l-107 -100q-37 -41 -37 -60q0 -3 3 -4h2q21 2 57 30
q20 16 117 107q49 8 56 8q3 -1 3 -2v-2q-3 -4 -126 -116q-58 -54 -58 -86v-1h1q12 5 36 8q56 32 75 90q4 14 7 14q8 7 38 15l5 1h1q3 0 3 -3q-14 -36 -14 -65v-8l2 -20v0q38 6 60 25q1 0 35 34q51 41 112 41q71 0 131 -59v0h-1q-38 33 -68 43q-27 9 -53 9h-1q-57 0 -98 -40
q-23 -26 -23 -61q0 -26 13 -52l2 -1q9 6 9 16q0 8 -14 15q-8 7 -8 23q0 13 4 13q34 13 41 13h1q7 0 7 -16q0 -65 -69 -100q-6 -2 -9 -2q-14 0 -20 55v9q0 24 9 46h-1q-10 -7 -31 -14q-20 -4 -27 -4v-1q9 -56 60 -128q26 -38 123 -144q90 -95 95 -102v-1q0 -6 -36 -6h-1
q-17 0 -31 19l-166 178q-47 52 -104 109q-39 38 -80 38q-14 0 -50 -9l-4 -1h-4q-7 0 -9 10v2q2 25 25 59l1 1v1q-30 -4 -51 -9q-12 -4 -19 -4q-9 0 -10 11v0q0 20 23 58l5 6v0q-18 -3 -34 -3q-42 0 -79 29q-12 7 -19 7q-13 0 -19 -17l-1 -8q0 -53 145 -190q43 -40 193 -178
q55 -50 118 -113q86 -87 86 -130q0 -26 -28 -38q-9 -3 -21 -3q-30 0 -89 33q-39 18 -64 18h-3q-6 0 -22 -3v0q57 -58 74 -83q62 -78 62 -149q0 -58 -40 -86q-18 -9 -35 -9q-37 0 -63 34q-3 5 -5 9v0q0 -9 -13 -47q-32 -82 -101 -119q-50 -27 -111 -27q-98 0 -159 76
q-22 32 -26 79q0 2 1 2q-3 16 -5 43h-1v639q0 1 -19 30q-82 133 -82 255q0 138 90 243l11 12v186q0 10 7 17q26 38 31 43zM1766 31v-256l-1 -1h-50l-1 1v173h-103v-174h-1h-50v0v257v1h205zM1714 6h-103v-32h103v32zM624 1807q0 -93 54 -183q10 -21 20 -35v421
q-74 -90 -74 -203zM1347 1993l1 -2v-2q-3 -10 -3 -22l1 -35q0 -33 -24 -33l-46 6q-4 0 -4 -7v-40q0 -21 -19 -28q-4 -2 -12 -2q-16 0 -16 4v3q3 11 3 17v0l-1 31q0 33 36 33l30 -1q7 1 7 7v41q0 18 16 26q18 4 31 4zM1536 -179v-47l-1 -1h-15v1v39h-20v-39l-1 -1h-15l-1 1
v39h-19v-39l-1 -1h-15v1v47v1h87zM1533 31v-56v-1h-37l-1 -1v-25h38v0v-98v-1h-205l-1 1v181l1 1h205v-1zM1469 6h-90v-32h90v32zM1469 -52h-90v-73h90v73zM1440 -178v-47l-1 -1h-63l-1 1v47h1h63h1zM1423 -186h-31v-32h31v32zM1365 -179v-6l-1 -1h-47v-32h47l1 -1v-6l-1 -1
h-63l-1 1v46l1 1h63zM1141 1682q-25 -37 -61 -55v-1h5q35 0 70 -27v0v1q-15 28 -15 64l2 18v0h-1zM1300 31v-181v-1h-50l-1 1v98h-103v-98l-1 -1h-50l-1 1v181l1 1h205v-1zM1288 -219v-7l-1 -1h-11l-1 1v7h1h11h1zM1260 -219v-7v-1h-45v1v47v1h15l1 -1v-40h29v0zM1249 6
h-103v-32h103v32zM1073 1593q4 0 4 -4q-4 -7 -4 -11v-4q0 -6 6 -46v-7q0 -18 -16 -24q-21 -5 -28 -5q-4 0 -5 3v1l2 9v1l-7 45v10q0 25 47 32h1zM1207 -179v-47l-1 -1h-15l-1 1v47l1 1h15zM1182 -179v-47v-1h-15l-1 1v21h-32v-21v-1h-15l-1 1v47l1 1h63v-1zM1189 1473
q4 0 4 -4q-3 -8 -3 -12v-1q0 -9 5 -46v-9q0 -23 -28 -27l-16 -1q-5 0 -5 3l2 8v4l-6 37q-1 6 -1 14v0q0 21 25 29q16 5 23 5zM1166 -187h-32v-9h32v9zM742 1440v-488v-83q0 -11 9 -51q9 -31 19 -45q27 -48 94 -72q31 -9 59 -9q80 0 137 66q18 24 28 48q14 37 14 46l3 18
q-7 21 -18 92q-10 43 -20 67q-2 4 -2 8v3q0 12 22 36q2 2 3 2h1q7 0 23 -46q6 -15 13 -58q6 -61 12 -74q14 -38 52 -38q22 0 36 11q8 8 8 22q0 59 -158 206q-19 18 -112 105q-47 43 -130 127q0 1 -25 27q-39 43 -68 80zM1107 -179v-47l-1 -1h-14l-1 1v39h-20v-39l-1 -1h-15
v1v39h-20v-39l-1 -1h-14l-1 1v47l1 1h86zM1041 31v-24v-1h-77v-156l-1 -1h-50l-1 1v156h-76l-1 1v24l1 1h205v-1zM1011 -179v-7l-1 -1h-47v-32h32v14h-20v1v7v1h35l1 -1v-29l-1 -1h-63v1v47v1h63zM928 -164v-45v0h-50h-1v29l1 1h34v-1v-21h8v29h-50v-45h58v-1v-7v-1h-66v1
v61v1h66v-1zM904 -187h-18v-14h18v14zM849 -179v-7v-1h-48v-9h48v-1v-29v-1h-63l-1 1v47l1 1h63v-1zM809 31v-181l-1 -1h-205l-1 1v24l1 1h154v131h-102l-1 1v24l1 1h153zM829 -205h-28v-14h28v14zM777 -179v-47l-1 -1h-62l-1 1v47l1 1h62zM761 -187h-32v-9h32v9zM761 -205
h-32v-14h32v14zM688 -204l16 -23h-19l-13 17l-15 -17h-16l16 24l-16 25h18l13 -18l15 18h19zM634 -179v-47l-1 -1h-15v1v47v1h15zM607 -178v-47l-1 -1h-63v1v7v0h47v32h-31l-1 1v7h1h47h1zM576 31v-181l-1 -1h-205v1v181v1h205zM524 6h-102v-131h102v131zM533 -179v-47v0
h-63h-1v47l1 1h63v-1zM517 -186h-31v-32h31v32zM458 -179v-47h-1h-15v0v40h-20v-40h-1h-15v0v40h-20v-40h-1h-14h-1v47l1 1h86zM895 576q7 0 16 -21q1 -6 60 -60q62 -49 68 -78l2 -13q0 -28 -38 -57l-67 -55q-4 -5 -4 -9q0 -9 26 -30q57 -50 68 -63q16 -22 16 -47
q0 -38 -50 -75l-5 -2q-10 0 -22 26q-19 24 -40 39q-54 40 -61 64q-5 11 -5 24v3q0 39 65 96q26 25 26 32v2q0 9 -29 33l-60 55q-20 23 -20 48q0 24 25 54q19 27 27 33zM333 31v-256v-1h-50l-1 1v231h-65v-232h-51l-1 1v231h-63v-231l-1 -1h-50h-1v257l1 1h282v-1z" />
  </font>
</defs>
</svg>
